ply
format ascii 1.0
comment Created by Blender 2.91.2 - www.blender.org
element vertex 264
property float x
property float y
property float z
property float nx
property float ny
property float nz
property uchar red
property uchar green
property uchar blue
property uchar alpha
element face 260
property list uchar uint vertex_indices
end_header
0.297149 3.105525 4.375683 -0.000000 0.000000 1.000000 0 0 0 255
0.000010 3.158839 4.375683 -0.000000 0.000000 1.000000 0 0 0 255
-0.297130 3.105525 4.375683 -0.000000 0.000000 1.000000 3 0 0 255
-0.539775 2.960134 4.375683 0.000000 0.000000 1.000000 1 0 0 255
0.539795 2.960134 4.375683 -0.000000 0.000000 1.000000 0 0 0 255
-0.703369 2.744494 4.375683 -0.000000 0.000000 1.000000 2 0 0 255
0.703389 2.744494 4.375683 -0.000000 0.000000 1.000000 2 0 0 255
-0.296855 2.565234 4.375683 0.000000 -0.000000 1.000000 0 0 0 255
-0.763358 2.480433 4.375683 -0.000000 0.000000 1.000000 0 0 0 255
0.763378 2.480433 4.375683 -0.000000 0.000000 1.000000 0 0 0 255
0.296875 2.565234 4.375683 -0.000000 0.000000 1.000000 0 0 0 255
0.362854 2.551889 4.375683 -0.000000 -0.000000 1.000000 10 0 0 255
0.230896 2.551889 4.375683 -0.000000 0.000000 1.000000 0 0 0 255
-0.230877 2.551889 4.375683 -0.000000 -0.000000 1.000000 0 0 0 255
-0.362834 2.551889 4.375683 -0.000000 0.000000 1.000000 0 0 0 255
0.416781 2.515513 4.375683 -0.000000 -0.000000 1.000000 0 0 0 255
0.176969 2.515513 4.375683 -0.000000 0.000000 1.000000 0 0 0 255
-0.176950 2.515513 4.375683 -0.000000 -0.000000 1.000000 0 0 0 255
-0.416761 2.515513 4.375683 -0.000000 0.000000 1.000000 0 0 0 255
0.453164 2.461597 4.375683 -0.000000 -0.000000 1.000000 0 0 0 255
0.140586 2.461597 4.375683 -0.000000 0.000000 1.000000 0 0 0 255
-0.140566 2.461597 4.375683 -0.000000 -0.000000 1.000000 0 0 0 255
-0.453144 2.461597 4.375683 -0.000000 0.000000 1.000000 1 0 0 255
0.736542 2.302599 4.375683 -0.000000 0.000000 1.000000 0 0 0 255
-0.736522 2.302599 4.375683 -0.000000 -0.000000 1.000000 0 0 0 255
0.466513 2.395633 4.375683 -0.000000 -0.000000 1.000000 0 0 0 255
0.127238 2.395633 4.375683 -0.000000 0.000000 1.000000 0 0 0 255
-0.127218 2.395633 4.375683 -0.000000 -0.000000 1.000000 0 0 0 255
-0.466493 2.395633 4.375683 -0.000000 0.000000 1.000000 0 0 0 255
0.453164 2.329668 4.375683 -0.000000 0.000000 1.000000 0 0 0 255
0.140586 2.329668 4.375683 -0.000000 0.000000 1.000000 0 0 0 255
-0.140566 2.329668 4.375683 -0.000000 0.000000 1.000000 0 0 0 255
-0.453144 2.329668 4.375683 -0.000000 0.000000 1.000000 0 0 0 255
0.416781 2.275752 4.375683 -0.000000 0.000000 1.000000 0 0 0 255
0.176969 2.275752 4.375683 -0.000000 0.000000 1.000000 0 0 0 255
-0.176950 2.275752 4.375683 -0.000000 0.000000 1.000000 0 0 0 255
-0.416761 2.275752 4.375683 -0.000000 0.000000 1.000000 0 0 0 255
0.660893 2.142900 4.375683 -0.000000 0.000000 1.000000 0 0 0 255
-0.660873 2.142900 4.375683 -0.000000 -0.000000 1.000000 0 0 0 255
0.362854 2.239377 4.375683 -0.000000 0.000000 1.000000 0 0 0 255
0.230896 2.239377 4.375683 -0.000000 0.000000 1.000000 0 0 0 255
-0.230877 2.239377 4.375683 -0.000000 0.000000 1.000000 0 0 0 255
-0.362834 2.239377 4.375683 -0.000000 0.000000 1.000000 0 0 0 255
0.296875 2.226031 4.375683 -0.000000 0.000000 1.000000 0 0 0 255
-0.296855 2.226031 4.375683 -0.000000 0.000000 1.000000 0 0 0 255
0.543716 2.007171 4.375683 -0.000000 0.000000 1.000000 1 0 0 255
-0.543696 2.007171 4.375683 -0.000000 -0.000000 1.000000 0 0 0 255
0.392296 1.901244 4.375683 -0.000000 0.000000 1.000000 0 0 0 255
-0.392276 1.901244 4.375683 -0.000000 -0.000000 1.000000 0 0 0 255
0.421347 1.764132 4.375683 -0.000000 0.000000 1.000000 0 0 0 255
-0.396832 1.879821 4.375683 -0.000000 0.000000 1.000000 0 0 0 255
-0.406855 1.832688 4.375683 -0.000000 0.000000 1.000000 0 0 0 255
-0.416877 1.785556 4.375683 -0.000000 0.000000 1.000000 0 0 0 255
1.053577 1.797668 4.375683 -0.000000 0.000000 1.000000 4 0 0 255
1.021336 1.801868 4.375683 -0.000000 0.000000 1.000000 3 0 0 255
0.988836 1.793070 4.375683 -0.000000 0.000000 1.000000 1 0 0 255
-0.988816 1.793070 4.375683 -0.000000 0.000000 1.000000 22 0 0 255
-1.021346 1.801861 4.375683 -0.000000 0.000000 1.000000 31 1 0 255
-1.053597 1.797648 4.375683 -0.000000 0.000000 1.000000 16 0 0 255
1.081902 1.781682 4.375683 -0.000000 0.000000 1.000000 7 0 0 255
-1.081912 1.781659 4.375683 -0.000000 0.000000 1.000000 5 0 0 255
0.000010 1.312250 4.375683 -0.000000 0.000000 1.000000 20 1 0 255
-0.834312 1.717942 4.375683 -0.000000 0.000000 1.000000 0 0 0 255
-0.421433 1.764132 4.375683 -0.000000 0.000000 1.000000 0 0 0 255
1.102652 1.755122 4.375683 -0.000000 0.000000 1.000000 10 0 0 255
-1.102633 1.755122 4.375683 -0.000000 0.000000 1.000000 0 0 0 255
0.421915 1.715335 4.375683 -0.000000 0.000000 1.000000 5 0 0 255
-0.422001 1.715335 4.375683 -0.000000 0.000000 1.000000 0 0 0 255
1.114506 1.731413 4.375683 -0.000000 0.000000 1.000000 12 0 0 255
-1.114486 1.731413 4.375683 -0.000000 0.000000 1.000000 0 0 0 255
1.140582 1.679252 4.375683 -0.000000 0.000000 1.000000 20 0 0 255
-1.140562 1.679252 4.375683 -0.000000 0.000000 1.000000 0 0 0 255
-0.494403 1.552660 4.375683 -0.000000 0.000000 1.000000 0 0 0 255
0.404979 1.673197 4.375683 -0.000000 0.000000 1.000000 8 0 0 255
-0.405065 1.673197 4.375683 -0.000000 -0.000000 1.000000 0 0 0 255
1.166659 1.627091 4.375683 -0.000000 0.000000 1.000000 25 0 0 255
-1.166639 1.627091 4.375683 -0.000000 0.000000 1.000000 0 0 0 255
-0.374512 1.643599 4.375683 0.000000 -0.000000 1.000000 0 0 0 255
0.374426 1.643599 4.375683 -0.000000 0.000000 1.000000 3 0 0 255
-0.334229 1.632426 4.375683 0.000000 -0.000000 1.000000 0 0 0 255
0.334142 1.632426 4.375683 -0.000000 0.000000 1.000000 0 0 0 255
0.229709 1.632426 4.375683 0.000000 0.000000 0.000000 0 0 0 255
0.334142 1.632426 4.375683 0.000000 0.000000 0.000000 0 0 0 255
-0.334229 1.632426 4.375683 0.000000 0.000000 0.000000 0 0 0 255
-0.000043 1.632426 4.375683 0.000000 0.000000 0.000000 0 0 0 255
-0.229796 1.632426 4.375683 0.000000 0.000000 0.000000 0 0 0 255
1.178512 1.603382 4.375683 -0.000000 0.000000 1.000000 28 0 0 255
-1.178492 1.603382 4.375683 -0.000000 0.000000 1.000000 0 0 0 255
1.187313 1.570890 4.375683 -0.000000 0.000000 1.000000 29 1 0 255
-1.187315 1.570890 4.375683 -0.000000 0.000000 1.000000 0 0 0 255
1.183118 1.538661 4.375683 -0.000000 0.000000 1.000000 21 0 0 255
-1.183118 1.538661 4.375683 -0.000000 -0.000000 1.000000 0 0 0 255
-0.154494 1.387378 4.375683 -0.000000 0.000000 1.000000 0 0 0 255
1.167144 1.510358 4.375683 -0.000000 0.000000 1.000000 12 0 0 255
-1.167131 1.510358 4.375683 -0.000000 -0.000000 1.000000 0 0 0 255
1.140609 1.489643 4.375683 -0.000000 0.000000 1.000000 5 0 0 255
-1.140589 1.489643 4.375683 -0.000000 -0.000000 1.000000 0 0 0 255
1.022997 1.432452 4.375683 -0.000000 0.000000 1.000000 0 0 0 255
-0.387876 1.123622 4.375683 -0.000000 -0.000000 1.000000 0 0 0 255
0.764252 1.306632 4.375683 -0.000000 0.000000 1.000000 0 0 0 255
0.505507 1.180812 4.375683 -0.000000 0.000000 1.000000 0 0 0 255
0.387896 1.123622 4.375683 -0.000000 0.000000 1.000000 0 0 0 255
1.140556 0.757600 4.375683 -0.000000 0.000000 1.000000 3 0 0 255
0.000010 0.934993 4.375683 -0.000000 -0.000000 1.000000 0 0 0 255
-1.140536 0.757600 4.375683 -0.000000 0.000000 1.000000 0 0 0 255
0.154506 0.859865 4.375683 -0.000000 -0.000000 1.000000 0 0 0 255
-0.988816 0.454173 4.375683 -0.000000 0.000000 1.000000 0 0 0 255
0.494397 0.694583 4.375683 -0.000000 -0.000000 1.000000 3 0 0 255
1.167098 0.736884 4.375683 -0.000000 0.000000 1.000000 9 0 0 255
-1.167079 0.736884 4.375683 -0.000000 0.000000 1.000000 0 0 0 255
1.183084 0.708575 4.375683 -0.000000 0.000000 1.000000 8 0 0 255
-1.183071 0.708575 4.375683 -0.000000 0.000000 1.000000 0 0 0 255
1.187282 0.676331 4.375683 -0.000000 0.000000 1.000000 4 0 0 255
-1.187285 0.676331 4.375683 -0.000000 0.000000 1.000000 0 0 0 255
0.834287 0.529301 4.375683 -0.000000 -0.000000 1.000000 0 0 0 255
1.178459 0.643808 4.375683 -0.000000 0.000000 1.000000 0 0 0 255
-1.178492 0.643808 4.375683 -0.000000 -0.000000 1.000000 0 0 0 255
1.166606 0.620099 4.375683 -0.000000 0.000000 1.000000 0 0 0 255
-1.166639 0.620099 4.375683 -0.000000 -0.000000 1.000000 0 0 0 255
1.140529 0.567938 4.375683 -0.000000 0.000000 1.000000 0 0 0 255
-1.140562 0.567938 4.375683 -0.000000 -0.000000 1.000000 0 0 0 255
1.114452 0.515777 4.375683 -0.000000 0.000000 1.000000 0 0 0 255
-1.114486 0.515777 4.375683 -0.000000 -0.000000 1.000000 0 0 0 255
0.988783 0.454173 4.375683 -0.000000 -0.000000 1.000000 0 0 0 255
1.102599 0.492068 4.375683 -0.000000 0.000000 1.000000 0 0 0 255
-1.102633 0.492068 4.375683 -0.000000 -0.000000 1.000000 0 0 0 255
1.081878 0.465531 4.375683 -0.000000 0.000000 1.000000 0 0 0 255
-1.081882 0.465539 4.375683 -0.000000 -0.000000 1.000000 0 0 0 255
-1.053557 0.449568 4.375683 -0.000000 -0.000000 1.000000 1 0 0 255
1.053564 0.449548 4.375683 -0.000000 0.000000 1.000000 0 0 0 255
1.021313 0.445351 4.375683 -0.000000 -0.000000 1.000000 0 0 0 255
-1.021316 0.445374 4.375683 -0.000000 0.000000 1.000000 1 0 0 255
0.297149 3.233869 4.557407 -0.000000 0.000000 1.000000 255 5 0 255
0.000010 3.287183 4.557407 -0.000000 0.000000 1.000000 255 5 0 255
-0.297130 3.233869 4.557407 -0.000000 0.000000 1.000000 255 5 0 255
-0.539775 3.088478 4.557407 0.000000 0.000000 1.000000 255 5 0 255
0.539795 3.088478 4.557407 -0.000000 0.000000 1.000000 255 5 0 255
-0.703369 2.872838 4.557407 0.000000 0.000000 1.000000 255 5 0 255
0.703389 2.872838 4.557407 -0.000000 0.000000 1.000000 255 5 0 255
-0.296855 2.693578 4.557407 0.000000 -0.000000 1.000000 255 5 0 255
-0.763358 2.608778 4.557407 -0.000000 0.000000 1.000000 255 5 0 255
0.763378 2.608778 4.557407 -0.000000 0.000000 1.000000 255 5 0 255
0.296875 2.693578 4.557407 -0.000000 0.000000 1.000000 255 5 0 255
0.362854 2.680233 4.557407 -0.000000 -0.000000 1.000000 255 5 0 255
0.230896 2.680233 4.557407 -0.000000 0.000000 1.000000 255 5 0 255
-0.230877 2.680233 4.557407 -0.000000 -0.000000 1.000000 255 5 0 255
-0.362834 2.680233 4.557407 -0.000000 0.000000 1.000000 255 5 0 255
0.416781 2.643857 4.557407 -0.000000 -0.000000 1.000000 255 5 0 255
0.176969 2.643857 4.557407 -0.000000 0.000000 1.000000 255 5 0 255
-0.176950 2.643857 4.557407 -0.000000 -0.000000 1.000000 255 5 0 255
-0.416761 2.643857 4.557407 -0.000000 0.000000 1.000000 255 5 0 255
0.453164 2.589942 4.557407 -0.000000 -0.000000 1.000000 255 5 0 255
0.140586 2.589942 4.557407 -0.000000 0.000000 1.000000 255 5 0 255
-0.140566 2.589942 4.557407 -0.000000 -0.000000 1.000000 255 5 0 255
-0.453144 2.589942 4.557407 -0.000000 0.000000 1.000000 255 5 0 255
0.736542 2.430943 4.557407 -0.000000 0.000000 1.000000 255 5 0 255
-0.736522 2.430943 4.557407 -0.000000 -0.000000 1.000000 255 5 0 255
0.466513 2.523977 4.557407 -0.000000 -0.000000 1.000000 255 5 0 255
0.127238 2.523977 4.557407 -0.000000 0.000000 1.000000 255 5 0 255
-0.127218 2.523977 4.557407 -0.000000 -0.000000 1.000000 255 5 0 255
-0.466493 2.523977 4.557407 -0.000000 0.000000 1.000000 255 5 0 255
0.453164 2.458012 4.557407 -0.000000 0.000000 1.000000 255 5 0 255
0.140586 2.458012 4.557407 -0.000000 0.000000 1.000000 255 5 0 255
-0.140566 2.458012 4.557407 -0.000000 0.000000 1.000000 255 5 0 255
-0.453144 2.458012 4.557407 -0.000000 0.000000 1.000000 255 5 0 255
0.416781 2.404096 4.557407 -0.000000 0.000000 1.000000 255 5 0 255
0.176969 2.404096 4.557407 -0.000000 0.000000 1.000000 255 5 0 255
-0.176950 2.404096 4.557407 -0.000000 0.000000 1.000000 255 5 0 255
-0.416761 2.404096 4.557407 -0.000000 0.000000 1.000000 255 5 0 255
0.660893 2.271244 4.557407 -0.000000 0.000000 1.000000 255 6 4 255
-0.660873 2.271244 4.557407 -0.000000 -0.000000 1.000000 255 5 0 255
0.362854 2.367721 4.557407 -0.000000 0.000000 1.000000 255 5 0 255
0.230896 2.367721 4.557407 -0.000000 0.000000 1.000000 255 5 0 255
-0.230877 2.367721 4.557407 -0.000000 0.000000 1.000000 255 5 0 255
-0.362834 2.367721 4.557407 -0.000000 0.000000 1.000000 255 5 0 255
0.296875 2.354375 4.557407 -0.000000 0.000000 1.000000 255 5 0 255
-0.296855 2.354375 4.557407 -0.000000 0.000000 1.000000 255 5 0 255
0.543716 2.135515 4.557407 -0.000000 0.000000 1.000000 255 5 0 255
-0.543696 2.135515 4.557407 -0.000000 -0.000000 1.000000 255 5 0 255
0.392296 2.029589 4.557407 -0.000000 0.000000 1.000000 255 5 0 255
-0.392276 2.029589 4.557407 -0.000000 -0.000000 1.000000 255 5 0 255
0.421347 1.892476 4.557407 -0.000000 0.000000 1.000000 255 5 0 255
-0.396832 2.008165 4.557407 -0.000000 0.000000 1.000000 255 5 0 255
-0.406855 1.961032 4.557407 -0.000000 0.000000 1.000000 255 5 0 255
-0.416877 1.913900 4.557407 -0.000000 0.000000 1.000000 255 5 0 255
1.053577 1.926012 4.557407 -0.000000 0.000000 1.000000 255 5 0 255
1.021336 1.930213 4.557407 -0.000000 0.000000 1.000000 255 5 0 255
0.988836 1.921415 4.557407 -0.000000 0.000000 1.000000 255 5 0 255
-0.988816 1.921415 4.557407 -0.000000 0.000000 1.000000 255 5 0 255
-1.021346 1.930205 4.557407 -0.000000 0.000000 1.000000 255 5 0 255
-1.053597 1.925992 4.557407 -0.000000 0.000000 1.000000 255 5 0 255
1.081902 1.910026 4.557407 -0.000000 0.000000 1.000000 255 5 0 255
-1.081912 1.910004 4.557407 -0.000000 0.000000 1.000000 255 5 0 255
0.000010 1.440594 4.557407 -0.000000 0.000000 1.000000 255 5 0 255
-0.834312 1.846286 4.557407 -0.000000 0.000000 1.000000 255 5 0 255
-0.421433 1.892476 4.557407 -0.000000 0.000000 1.000000 255 5 0 255
1.102652 1.883466 4.557407 -0.000000 0.000000 1.000000 255 5 0 255
-1.102633 1.883466 4.557407 -0.000000 0.000000 1.000000 255 5 0 255
0.421915 1.843679 4.557407 -0.000000 0.000000 1.000000 255 5 0 255
-0.422001 1.843679 4.557407 -0.000000 0.000000 1.000000 255 5 0 255
1.114506 1.859757 4.557407 -0.000000 0.000000 1.000000 255 5 0 255
-1.114486 1.859757 4.557407 -0.000000 0.000000 1.000000 255 5 0 255
1.140582 1.807596 4.557407 -0.000000 0.000000 1.000000 255 5 0 255
-1.140562 1.807596 4.557407 -0.000000 0.000000 1.000000 255 5 0 255
-0.494403 1.681004 4.557407 -0.000000 0.000000 1.000000 255 5 0 255
0.404979 1.801541 4.557407 -0.000000 0.000000 1.000000 255 5 0 255
-0.405065 1.801541 4.557407 -0.000000 -0.000000 1.000000 255 5 0 255
1.166659 1.755435 4.557407 -0.000000 0.000000 1.000000 255 5 0 255
-1.166639 1.755435 4.557407 -0.000000 0.000000 1.000000 255 5 0 255
-0.374512 1.771943 4.557407 0.000000 -0.000000 1.000000 255 5 0 255
0.374426 1.771943 4.557407 -0.000000 0.000000 1.000000 255 5 0 255
-0.334229 1.760770 4.557407 0.000000 -0.000000 1.000000 255 5 0 255
0.334142 1.760770 4.557407 -0.000000 0.000000 1.000000 255 5 0 255
0.229709 1.760770 4.557407 0.000000 0.000000 0.000000 255 5 0 255
0.334142 1.760770 4.557407 0.000000 0.000000 0.000000 255 5 0 255
-0.334229 1.760770 4.557407 0.000000 0.000000 0.000000 255 5 0 255
-0.000043 1.760770 4.557407 0.000000 0.000000 0.000000 255 5 0 255
-0.229796 1.760770 4.557407 0.000000 0.000000 0.000000 255 5 0 255
1.178512 1.731726 4.557407 -0.000000 0.000000 1.000000 255 5 0 255
-1.178492 1.731726 4.557407 -0.000000 0.000000 1.000000 255 5 0 255
1.187313 1.699234 4.557407 -0.000000 0.000000 1.000000 255 5 1 255
-1.187315 1.699234 4.557407 -0.000000 0.000000 1.000000 255 5 0 255
1.183118 1.667006 4.557407 -0.000000 0.000000 1.000000 255 5 0 255
-1.183118 1.667006 4.557407 -0.000000 -0.000000 1.000000 255 5 0 255
-0.154494 1.515723 4.557407 -0.000000 0.000000 1.000000 255 5 0 255
1.167144 1.638703 4.557407 -0.000000 0.000000 1.000000 255 5 0 255
-1.167131 1.638703 4.557407 -0.000000 -0.000000 1.000000 255 5 0 255
1.140609 1.617987 4.557407 -0.000000 0.000000 1.000000 255 5 0 255
-1.140589 1.617987 4.557407 -0.000000 -0.000000 1.000000 255 5 0 255
1.022997 1.560796 4.557407 -0.000000 0.000000 1.000000 255 5 0 255
-0.387876 1.251966 4.557407 -0.000000 -0.000000 1.000000 255 5 0 255
0.764252 1.434976 4.557407 -0.000000 0.000000 1.000000 255 5 0 255
0.505507 1.309157 4.557407 -0.000000 0.000000 1.000000 255 5 0 255
0.387896 1.251966 4.557407 -0.000000 0.000000 1.000000 255 5 0 255
1.140556 0.885945 4.557407 -0.000000 0.000000 1.000000 255 5 0 255
0.000010 1.063337 4.557407 -0.000000 -0.000000 1.000000 255 5 0 255
-1.140536 0.885945 4.557407 -0.000000 0.000000 1.000000 255 5 1 255
0.154506 0.988209 4.557407 -0.000000 -0.000000 1.000000 255 5 0 255
-0.988816 0.582517 4.557407 -0.000000 0.000000 1.000000 255 5 0 255
0.494397 0.822927 4.557407 -0.000000 -0.000000 1.000000 255 14 12 255
1.167098 0.865228 4.557407 -0.000000 0.000000 1.000000 255 5 0 255
-1.167079 0.865228 4.557407 -0.000000 0.000000 1.000000 255 5 1 255
1.183084 0.836919 4.557407 -0.000000 0.000000 1.000000 255 5 1 255
-1.183071 0.836919 4.557407 -0.000000 0.000000 1.000000 255 5 1 255
1.187282 0.804675 4.557407 -0.000000 0.000000 1.000000 255 6 2 255
-1.187285 0.804675 4.557407 -0.000000 0.000000 1.000000 255 5 0 255
0.834287 0.657645 4.557407 -0.000000 -0.000000 1.000000 255 5 0 255
1.178459 0.772153 4.557407 -0.000000 0.000000 1.000000 255 6 4 255
-1.178492 0.772153 4.557407 -0.000000 -0.000000 1.000000 255 5 2 255
1.166606 0.748443 4.557407 -0.000000 0.000000 1.000000 255 6 5 255
-1.166639 0.748443 4.557407 -0.000000 -0.000000 1.000000 255 5 2 255
1.140529 0.696282 4.557407 -0.000000 0.000000 1.000000 255 11 10 255
-1.140562 0.696282 4.557407 -0.000000 -0.000000 1.000000 255 6 3 255
1.114452 0.644122 4.557407 -0.000000 0.000000 1.000000 255 21 20 255
-1.114486 0.644122 4.557407 -0.000000 -0.000000 1.000000 255 6 4 255
0.988783 0.582517 4.557407 -0.000000 -0.000000 1.000000 255 11 9 255
1.102599 0.620412 4.557407 -0.000000 0.000000 1.000000 255 29 29 255
-1.102633 0.620412 4.557407 -0.000000 -0.000000 1.000000 255 7 4 255
1.081878 0.593876 4.557407 -0.000000 0.000000 1.000000 255 38 38 255
-1.081882 0.593883 4.557407 -0.000000 -0.000000 1.000000 255 6 3 255
-1.053557 0.577912 4.557407 -0.000000 -0.000000 1.000000 255 6 2 255
1.053564 0.577893 4.557407 -0.000000 0.000000 1.000000 255 34 34 255
1.021313 0.573696 4.557407 -0.000000 -0.000000 1.000000 255 22 21 255
-1.021316 0.573718 4.557407 -0.000000 0.000000 1.000000 255 5 0 255
3 0 1 2
3 0 2 3
3 4 0 3
3 4 3 5
3 6 4 5
3 6 5 7
3 7 5 8
3 9 6 10
3 10 6 7
3 9 10 11
3 12 10 7
3 12 7 13
3 14 7 8
3 9 11 15
3 16 12 13
3 16 13 17
3 18 14 8
3 9 15 19
3 20 16 17
3 20 17 21
3 22 18 8
3 23 9 19
3 22 8 24
3 23 19 25
3 26 20 21
3 26 21 27
3 28 22 24
3 23 25 29
3 30 26 27
3 30 27 31
3 32 28 24
3 23 29 33
3 34 30 31
3 34 31 35
3 36 32 24
3 37 23 33
3 36 24 38
3 37 33 39
3 40 34 35
3 40 35 41
3 42 36 38
3 37 39 43
3 43 40 41
3 43 41 44
3 44 42 38
3 37 43 44
3 37 44 38
3 45 37 38
3 45 38 46
3 47 45 46
3 47 46 48
3 49 47 48
3 49 48 50
3 49 50 51
3 49 51 52
3 53 54 55
3 56 57 58
3 59 53 55
3 56 58 60
3 59 55 61
3 62 56 60
3 49 52 63
3 64 59 61
3 62 60 65
3 66 49 63
3 66 63 67
3 68 64 61
3 62 65 69
3 70 68 61
3 62 69 71
3 72 62 71
3 73 66 67
3 73 67 74
3 75 70 61
3 72 71 76
3 73 74 77
3 78 73 77
3 78 77 79
3 80 78 79
3 81 82 83
3 84 81 83
3 85 84 83
3 86 75 61
3 72 76 87
3 88 86 61
3 72 87 89
3 90 88 61
3 72 89 91
3 92 72 91
3 93 90 61
3 92 91 94
3 95 93 61
3 92 94 96
3 97 95 61
3 92 96 98
3 99 97 61
3 61 92 98
3 99 61 98
3 100 99 98
3 101 100 98
3 102 101 98
3 102 98 103
3 103 98 104
3 102 103 105
3 106 103 104
3 102 105 107
3 108 102 107
3 106 104 109
3 110 108 107
3 106 109 111
3 112 110 107
3 106 111 113
3 112 107 114
3 115 112 114
3 106 113 116
3 117 115 114
3 106 116 118
3 119 117 114
3 106 118 120
3 121 119 114
3 106 120 122
3 121 114 123
3 124 121 123
3 106 122 125
3 126 124 123
3 106 125 127
3 106 127 128
3 129 126 123
3 129 123 130
3 131 106 128
3 132 133 134
3 132 134 135
3 136 132 135
3 136 135 137
3 138 136 137
3 138 137 139
3 139 137 140
3 141 138 142
3 142 138 139
3 141 142 143
3 144 142 139
3 144 139 145
3 146 139 140
3 141 143 147
3 148 144 145
3 148 145 149
3 150 146 140
3 141 147 151
3 152 148 149
3 152 149 153
3 154 150 140
3 155 141 151
3 154 140 156
3 155 151 157
3 158 152 153
3 158 153 159
3 160 154 156
3 155 157 161
3 162 158 159
3 162 159 163
3 164 160 156
3 155 161 165
3 166 162 163
3 166 163 167
3 168 164 156
3 169 155 165
3 168 156 170
3 169 165 171
3 172 166 167
3 172 167 173
3 174 168 170
3 169 171 175
3 175 172 173
3 175 173 176
3 176 174 170
3 169 175 176
3 169 176 170
3 177 169 170
3 177 170 178
3 179 177 178
3 179 178 180
3 181 179 180
3 181 180 182
3 181 182 183
3 181 183 184
3 185 186 187
3 188 189 190
3 191 185 187
3 188 190 192
3 191 187 193
3 194 188 192
3 181 184 195
3 196 191 193
3 194 192 197
3 198 181 195
3 198 195 199
3 200 196 193
3 194 197 201
3 202 200 193
3 194 201 203
3 204 194 203
3 205 198 199
3 205 199 206
3 207 202 193
3 204 203 208
3 205 206 209
3 210 205 209
3 210 209 211
3 212 210 211
3 213 214 215
3 216 213 215
3 217 216 215
3 218 207 193
3 204 208 219
3 220 218 193
3 204 219 221
3 222 220 193
3 204 221 223
3 224 204 223
3 225 222 193
3 224 223 226
3 227 225 193
3 224 226 228
3 229 227 193
3 224 228 230
3 231 229 193
3 193 224 230
3 231 193 230
3 232 231 230
3 233 232 230
3 234 233 230
3 234 230 235
3 235 230 236
3 234 235 237
3 238 235 236
3 234 237 239
3 240 234 239
3 238 236 241
3 242 240 239
3 238 241 243
3 244 242 239
3 238 243 245
3 244 239 246
3 247 244 246
3 238 245 248
3 249 247 246
3 238 248 250
3 251 249 246
3 238 250 252
3 253 251 246
3 238 252 254
3 253 246 255
3 256 253 255
3 238 254 257
3 258 256 255
3 238 257 259
3 238 259 260
3 261 258 255
3 261 255 262
3 263 238 260
