ply
format ascii 1.0
comment Created by Blender 2.91.2 - www.blender.org
element vertex 411
property float x
property float y
property float z
property float nx
property float ny
property float nz
property uchar red
property uchar green
property uchar blue
property uchar alpha
element face 143
property list uchar uint vertex_indices
end_header
-1.481808 0.608525 0.329932 0.227802 -0.622439 0.748784 255 255 255 255
-1.379973 0.483686 0.195177 0.227802 -0.622439 0.748784 255 255 255 255
-1.279662 0.663259 0.313932 0.227802 -0.622439 0.748784 255 255 255 255
-1.776196 0.855546 0.205064 -0.621877 0.090528 0.777865 255 255 255 255
-1.659955 0.718618 0.313930 -0.621877 0.090528 0.777865 255 255 255 255
-1.625739 0.953652 0.313932 -0.621877 0.090528 0.777865 255 255 255 255
-1.481808 0.608525 0.329932 0.154093 -0.293296 0.943522 255 255 255 255
-1.279662 0.663259 0.313932 0.154093 -0.293296 0.943522 255 255 255 255
-1.452700 0.808456 0.387327 0.154093 -0.293296 0.943522 255 255 255 255
-1.776196 0.855546 0.205064 -0.695586 0.419671 0.583126 255 255 255 255
-1.625739 0.953652 0.313932 -0.695586 0.419671 0.583126 255 255 255 255
-1.732682 1.043388 0.121782 -0.695586 0.419671 0.583126 255 255 255 255
-1.129205 0.761365 0.205064 0.961735 0.056796 0.268031 255 255 255 255
-1.072410 0.753098 0.003028 0.961735 0.056796 0.268031 255 255 255 255
-1.117359 0.953815 0.121781 0.961735 0.056796 0.268031 255 255 255 255
-1.423593 1.008387 0.329932 0.395816 0.531658 0.748779 255 255 255 255
-1.245446 0.898293 0.313930 0.395816 0.531658 0.748779 255 255 255 255
-1.290395 1.099010 0.195176 0.395816 0.531658 0.748779 255 255 255 255
-1.605538 1.161054 0.003028 -0.129319 0.972293 0.194736 255 255 255 255
-1.525428 1.133225 0.195177 -0.129319 0.972293 0.194736 255 255 255 255
-1.397340 1.188746 0.003028 -0.129319 0.972293 0.194736 255 255 255 255
-1.397340 1.188746 0.003028 0.401158 0.895070 0.194736 255 255 255 255
-1.290395 1.099010 0.195176 0.401158 0.895070 0.194736 255 255 255 255
-1.205678 1.102845 0.003028 0.401158 0.895070 0.194736 255 255 255 255
-1.397340 1.188746 0.003028 0.134576 0.924428 0.356821 255 255 255 255
-1.525428 1.133225 0.195177 0.134576 0.924428 0.356821 255 255 255 255
-1.290395 1.099010 0.195176 0.134576 0.924428 0.356821 255 255 255 255
-1.525428 1.133225 0.195177 0.112060 0.769756 0.628425 255 255 255 255
-1.423593 1.008387 0.329932 0.112060 0.769756 0.628425 255 255 255 255
-1.290395 1.099010 0.195176 0.112060 0.769756 0.628425 255 255 255 255
-1.290395 1.099010 0.195176 0.684914 0.656972 0.315090 255 255 255 255
-1.117359 0.953815 0.121781 0.684914 0.656972 0.315090 255 255 255 255
-1.205678 1.102845 0.003028 0.684914 0.656972 0.315090 255 255 255 255
-1.290395 1.099010 0.195176 0.654502 0.488160 0.577345 255 255 255 255
-1.245446 0.898293 0.313930 0.654502 0.488160 0.577345 255 255 255 255
-1.117359 0.953815 0.121781 0.654502 0.488160 0.577345 255 255 255 255
-1.245446 0.898293 0.313930 0.786368 0.203945 0.583122 255 255 255 255
-1.129205 0.761365 0.205064 0.786368 0.203945 0.583122 255 255 255 255
-1.117359 0.953815 0.121781 0.786368 0.203945 0.583122 255 255 255 255
-1.117359 0.953815 0.121781 0.860280 0.509823 -0.000000 255 255 255 255
-1.117359 0.953815 -0.115724 0.860280 0.509823 -0.000000 255 255 255 255
-1.205678 1.102845 0.003028 0.860280 0.509823 -0.000000 255 255 255 255
-1.117359 0.953815 0.121781 0.975830 0.218530 0.000000 255 255 255 255
-1.072410 0.753098 0.003028 0.975830 0.218530 0.000000 255 255 255 255
-1.117359 0.953815 -0.115724 0.975830 0.218530 0.000000 255 255 255 255
-1.732682 1.043388 0.121782 -0.469181 0.824976 0.315094 255 255 255 255
-1.525428 1.133225 0.195177 -0.469181 0.824976 0.315094 255 255 255 255
-1.605538 1.161054 0.003028 -0.469181 0.824976 0.315094 255 255 255 255
-1.732682 1.043388 0.121782 -0.488158 0.654501 0.577348 255 255 255 255
-1.625739 0.953652 0.313932 -0.488158 0.654501 0.577348 255 255 255 255
-1.525428 1.133225 0.195177 -0.488158 0.654501 0.577348 255 255 255 255
-1.625739 0.953652 0.313932 -0.227802 0.622439 0.748783 255 255 255 255
-1.423593 1.008387 0.329932 -0.227802 0.622439 0.748783 255 255 255 255
-1.525428 1.133225 0.195177 -0.227802 0.622439 0.748783 255 255 255 255
-1.452700 0.808456 0.387327 0.231325 0.237184 0.943521 255 255 255 255
-1.245446 0.898293 0.313930 0.231325 0.237184 0.943521 255 255 255 255
-1.423593 1.008387 0.329932 0.231325 0.237184 0.943521 255 255 255 255
-1.452700 0.808456 0.387327 0.353103 -0.051398 0.934171 255 255 255 255
-1.279662 0.663259 0.313932 0.353103 -0.051398 0.934171 255 255 255 255
-1.245446 0.898293 0.313930 0.353103 -0.051398 0.934171 255 255 255 255
-1.279662 0.663259 0.313932 0.621877 -0.090528 0.777865 255 255 255 255
-1.129205 0.761365 0.205064 0.621877 -0.090528 0.777865 255 255 255 255
-1.245446 0.898293 0.313930 0.621877 -0.090528 0.777865 255 255 255 255
-1.172719 0.573523 0.121782 0.905629 -0.328627 0.268031 255 255 255 255
-1.072410 0.753098 0.003028 0.905629 -0.328627 0.268031 255 255 255 255
-1.129205 0.761365 0.205064 0.905629 -0.328627 0.268031 255 255 255 255
-1.625739 0.953652 0.313932 -0.154093 0.293296 0.943522 255 255 255 255
-1.452700 0.808456 0.387327 -0.154093 0.293296 0.943522 255 255 255 255
-1.423593 1.008387 0.329932 -0.154093 0.293296 0.943522 255 255 255 255
-1.625739 0.953652 0.313932 -0.353103 0.051398 0.934171 255 255 255 255
-1.659955 0.718618 0.313930 -0.353103 0.051398 0.934171 255 255 255 255
-1.452700 0.808456 0.387327 -0.353103 0.051398 0.934171 255 255 255 255
-1.659955 0.718618 0.313930 -0.231325 -0.237183 0.943521 255 255 255 255
-1.481808 0.608525 0.329932 -0.231325 -0.237183 0.943521 255 255 255 255
-1.452700 0.808456 0.387327 -0.231325 -0.237183 0.943521 255 255 255 255
-1.279662 0.663259 0.313932 0.695586 -0.419671 0.583127 255 255 255 255
-1.172719 0.573523 0.121782 0.695586 -0.419671 0.583127 255 255 255 255
-1.129205 0.761365 0.205064 0.695586 -0.419671 0.583127 255 255 255 255
-1.279662 0.663259 0.313932 0.488158 -0.654501 0.577348 255 255 255 255
-1.379973 0.483686 0.195177 0.488158 -0.654501 0.577348 255 255 255 255
-1.172719 0.573523 0.121782 0.488158 -0.654501 0.577348 255 255 255 255
-1.379973 0.483686 0.195177 0.469181 -0.824976 0.315095 255 255 255 255
-1.299863 0.455857 0.003028 0.469181 -0.824976 0.315095 255 255 255 255
-1.172719 0.573523 0.121782 0.469181 -0.824976 0.315095 255 255 255 255
-1.732682 1.043388 -0.115725 -0.679223 0.733932 0.000000 255 255 255 255
-1.732682 1.043388 0.121782 -0.679223 0.733932 0.000000 255 255 255 255
-1.605538 1.161054 0.003028 -0.679223 0.733932 0.000000 255 255 255 255
-1.832991 0.863813 0.003028 -0.905629 0.328627 0.268031 255 255 255 255
-1.776196 0.855546 0.205064 -0.905629 0.328627 0.268031 255 255 255 255
-1.732682 1.043388 0.121782 -0.905629 0.328627 0.268031 255 255 255 255
-1.788042 0.663096 0.121781 -0.786368 -0.203945 0.583122 255 255 255 255
-1.659955 0.718618 0.313930 -0.786368 -0.203945 0.583122 255 255 255 255
-1.776196 0.855546 0.205064 -0.786368 -0.203945 0.583122 255 255 255 255
-1.788042 0.663096 0.121781 -0.654501 -0.488160 0.577346 255 255 255 255
-1.615006 0.517901 0.195176 -0.654501 -0.488160 0.577346 255 255 255 255
-1.659955 0.718618 0.313930 -0.654501 -0.488160 0.577346 255 255 255 255
-1.615006 0.517901 0.195176 -0.395816 -0.531658 0.748779 255 255 255 255
-1.481808 0.608525 0.329932 -0.395816 -0.531658 0.748779 255 255 255 255
-1.659955 0.718618 0.313930 -0.395816 -0.531658 0.748779 255 255 255 255
-1.615006 0.517901 0.195176 -0.112061 -0.769756 0.628425 255 255 255 255
-1.379973 0.483686 0.195177 -0.112061 -0.769756 0.628425 255 255 255 255
-1.481808 0.608525 0.329932 -0.112061 -0.769756 0.628425 255 255 255 255
-1.615006 0.517901 0.195176 -0.134577 -0.924428 0.356821 255 255 255 255
-1.508061 0.428165 0.003028 -0.134577 -0.924428 0.356821 255 255 255 255
-1.379973 0.483686 0.195177 -0.134577 -0.924428 0.356821 255 255 255 255
-1.832991 0.863813 0.003028 -0.961734 -0.056795 0.268032 255 255 255 255
-1.788042 0.663096 0.121781 -0.961734 -0.056795 0.268032 255 255 255 255
-1.776196 0.855546 0.205064 -0.961734 -0.056795 0.268032 255 255 255 255
-1.857039 0.727766 0.003028 0.642788 0.766045 -0.000000 255 145 136 255
-1.659495 0.562007 0.503028 0.642788 0.766045 -0.000000 255 145 136 255
-1.659495 0.562007 0.003028 0.642788 0.766045 -0.000000 255 145 136 255
-1.659495 0.562007 0.503028 0.639501 0.762127 -0.100999 255 145 136 255
-1.806775 0.718719 0.753029 0.639501 0.762127 -0.100999 255 86 69 255
-1.643182 0.581449 0.753029 0.639501 0.762127 -0.100999 255 83 64 255
-1.479589 0.444178 0.753029 0.639501 0.762127 -0.100999 254 92 81 255
-1.461951 0.396248 0.503028 0.639501 0.762127 -0.100999 244 140 151 255
-1.659495 0.562007 0.003028 0.642788 0.766044 -0.000000 255 145 136 255
-1.461951 0.396248 0.503028 0.642788 0.766044 -0.000000 244 140 151 255
-1.461951 0.396248 0.003028 0.642788 0.766044 -0.000000 255 145 136 255
-1.659495 0.562007 -0.496972 0.642788 0.766044 -0.000000 255 145 136 255
-1.461951 0.396248 -0.496972 0.642788 0.766044 -0.000000 252 144 140 255
-1.643182 0.581449 0.753029 0.627489 0.747812 -0.216876 255 83 64 255
-1.510265 0.506170 0.878028 0.627489 0.747812 -0.216876 255 83 64 255
-1.479589 0.444178 0.753029 0.627489 0.747812 -0.216876 254 92 81 255
-1.643182 0.581449 0.753029 0.627488 0.747812 -0.216876 255 83 64 255
-1.740398 0.699274 0.878028 0.627488 0.747812 -0.216876 255 83 64 255
-1.625331 0.602722 0.878028 0.627488 0.747812 -0.216876 255 83 64 255
-1.625331 0.602722 0.878028 0.621054 0.740143 -0.257840 255 83 64 255
-1.560147 0.569798 0.940529 0.621054 0.740143 -0.257840 255 83 64 255
-1.510265 0.506170 0.878028 0.621054 0.740143 -0.257840 255 83 64 255
-1.625331 0.602722 0.878028 0.621054 0.740143 -0.257839 255 83 64 255
-1.669074 0.661199 0.940529 0.621054 0.740143 -0.257839 255 83 64 255
-1.614610 0.615499 0.940529 0.621054 0.740143 -0.257839 255 83 64 255
-1.461951 0.396248 0.503028 0.766043 -0.642789 0.000000 244 140 151 255
-1.468379 0.388587 0.003028 0.766043 -0.642789 0.000000 255 145 136 255
-1.461951 0.396248 0.003028 0.766043 -0.642789 0.000000 255 145 136 255
-1.479589 0.444178 0.753029 0.728708 -0.527030 0.437292 254 92 81 255
-1.516524 0.498710 0.880301 0.728708 -0.527030 0.437292 255 83 64 255
-1.485948 0.436600 0.754492 0.728708 -0.527030 0.437292 254 92 81 255
-1.806775 0.718719 0.753029 -0.621837 0.653327 0.431836 255 86 69 255
-1.746657 0.691814 0.880301 -0.621837 0.653327 0.431836 255 83 64 255
-1.740398 0.699274 0.878028 -0.621837 0.653327 0.431836 255 83 64 255
-1.510265 0.506170 0.878028 0.599059 -0.273421 0.752575 255 83 64 255
-1.566357 0.562397 0.943107 0.599059 -0.273421 0.752575 255 83 64 255
-1.516524 0.498710 0.880301 0.599059 -0.273421 0.752575 255 83 64 255
-1.740398 0.699274 0.878028 -0.356611 0.559784 0.747977 255 83 64 255
-1.675285 0.653798 0.943107 -0.356611 0.559784 0.747977 255 83 64 255
-1.669074 0.661199 0.940529 -0.356611 0.559784 0.747977 255 83 64 255
-1.614610 0.615499 0.940529 0.165725 0.197503 0.966192 255 83 64 255
-1.566357 0.562397 0.943107 0.165725 0.197503 0.966192 255 83 64 255
-1.560147 0.569798 0.940529 0.165725 0.197503 0.966192 255 83 64 255
-1.669074 0.661199 0.940529 0.165725 0.197504 0.966192 255 83 64 255
-1.620821 0.608097 0.943107 0.165725 0.197504 0.966192 255 83 64 255
-1.614610 0.615499 0.940529 0.165725 0.197504 0.966192 255 83 64 255
-1.110776 1.088123 0.255902 0.227802 -0.622439 0.748783 255 255 255 255
-1.032003 0.991555 0.151663 0.227802 -0.622439 0.748783 255 255 255 255
-0.954408 1.130463 0.243526 0.227802 -0.622439 0.748783 255 255 255 255
-1.338498 1.279205 0.159312 -0.621877 0.090528 0.777865 255 255 255 255
-1.248581 1.173285 0.243524 -0.621877 0.090528 0.777865 255 255 255 255
-1.222113 1.355094 0.243526 -0.621877 0.090528 0.777865 255 255 255 255
-1.110776 1.088123 0.255902 0.154093 -0.293296 0.943522 255 255 255 255
-0.954408 1.130463 0.243526 0.154093 -0.293296 0.943522 255 255 255 255
-1.088260 1.242778 0.300300 0.154093 -0.293296 0.943522 255 255 255 255
-1.338498 1.279205 0.159312 -0.695586 0.419671 0.583126 255 255 255 255
-1.222113 1.355094 0.243526 -0.695586 0.419671 0.583126 255 255 255 255
-1.304838 1.424509 0.094889 -0.695586 0.419671 0.583126 255 255 255 255
-0.838022 1.206352 0.159312 0.961735 0.056795 0.268032 255 255 255 255
-0.794089 1.199957 0.003028 0.961735 0.056795 0.268032 255 255 255 255
-0.828860 1.355220 0.094889 0.961735 0.056795 0.268032 255 255 255 255
-1.065744 1.397434 0.255902 0.395816 0.531657 0.748779 255 255 255 255
-0.927940 1.312271 0.243524 0.395816 0.531657 0.748779 255 255 255 255
-0.962710 1.467535 0.151663 0.395816 0.531657 0.748779 255 255 255 255
-1.206487 1.515529 0.003028 -0.129320 0.972293 0.194736 255 255 255 255
-1.144518 1.494002 0.151663 -0.129320 0.972293 0.194736 255 255 255 255
-1.045437 1.536949 0.003028 -0.129320 0.972293 0.194736 255 255 255 255
-1.045437 1.536949 0.003028 0.401159 0.895070 0.194736 255 255 255 255
-0.962710 1.467535 0.151663 0.401159 0.895070 0.194736 255 255 255 255
-0.897178 1.470502 0.003028 0.401159 0.895070 0.194736 255 255 255 255
-1.045437 1.536949 0.003028 0.134576 0.924429 0.356821 255 255 255 255
-1.144518 1.494002 0.151663 0.134576 0.924429 0.356821 255 255 255 255
-0.962710 1.467535 0.151663 0.134576 0.924429 0.356821 255 255 255 255
-1.144518 1.494002 0.151663 0.112060 0.769756 0.628425 255 255 255 255
-1.065744 1.397434 0.255902 0.112060 0.769756 0.628425 255 255 255 255
-0.962710 1.467535 0.151663 0.112060 0.769756 0.628425 255 255 255 255
-0.962710 1.467535 0.151663 0.684914 0.656972 0.315090 255 255 255 255
-0.828860 1.355220 0.094889 0.684914 0.656972 0.315090 255 255 255 255
-0.897178 1.470502 0.003028 0.684914 0.656972 0.315090 255 255 255 255
-0.962710 1.467535 0.151663 0.654502 0.488159 0.577346 255 255 255 255
-0.927940 1.312271 0.243524 0.654502 0.488159 0.577346 255 255 255 255
-0.828860 1.355220 0.094889 0.654502 0.488159 0.577346 255 255 255 255
-0.927940 1.312271 0.243524 0.786368 0.203945 0.583122 255 255 255 255
-0.838022 1.206352 0.159312 0.786368 0.203945 0.583122 255 255 255 255
-0.828860 1.355220 0.094889 0.786368 0.203945 0.583122 255 255 255 255
-0.828860 1.355220 0.094889 0.860280 0.509823 -0.000000 255 255 255 255
-0.828860 1.355220 -0.088832 0.860280 0.509823 -0.000000 255 255 255 255
-0.897178 1.470502 0.003028 0.860280 0.509823 -0.000000 255 255 255 255
-0.828860 1.355220 0.094889 0.975830 0.218531 0.000000 255 255 255 255
-0.794089 1.199957 0.003028 0.975830 0.218531 0.000000 255 255 255 255
-0.828860 1.355220 -0.088832 0.975830 0.218531 0.000000 255 255 255 255
-1.304838 1.424509 0.094889 -0.469181 0.824976 0.315094 255 255 255 255
-1.144518 1.494002 0.151663 -0.469181 0.824976 0.315094 255 255 255 255
-1.206487 1.515529 0.003028 -0.469181 0.824976 0.315094 255 255 255 255
-1.304838 1.424509 0.094889 -0.488158 0.654501 0.577348 255 255 255 255
-1.222113 1.355094 0.243526 -0.488158 0.654501 0.577348 255 255 255 255
-1.144518 1.494002 0.151663 -0.488158 0.654501 0.577348 255 255 255 255
-1.222113 1.355094 0.243526 -0.227802 0.622438 0.748784 255 255 255 255
-1.065744 1.397434 0.255902 -0.227802 0.622438 0.748784 255 255 255 255
-1.144518 1.494002 0.151663 -0.227802 0.622438 0.748784 255 255 255 255
-1.088260 1.242778 0.300300 0.231325 0.237183 0.943521 255 255 255 255
-0.927940 1.312271 0.243524 0.231325 0.237183 0.943521 255 255 255 255
-1.065744 1.397434 0.255902 0.231325 0.237183 0.943521 255 255 255 255
-1.088260 1.242778 0.300300 0.353103 -0.051398 0.934171 255 255 255 255
-0.954408 1.130463 0.243526 0.353103 -0.051398 0.934171 255 255 255 255
-0.927940 1.312271 0.243524 0.353103 -0.051398 0.934171 255 255 255 255
-0.954408 1.130463 0.243526 0.621877 -0.090528 0.777865 255 255 255 255
-0.838022 1.206352 0.159312 0.621877 -0.090528 0.777865 255 255 255 255
-0.927940 1.312271 0.243524 0.621877 -0.090528 0.777865 255 255 255 255
-0.871683 1.061048 0.094889 0.905629 -0.328627 0.268031 255 255 255 255
-0.794089 1.199957 0.003028 0.905629 -0.328627 0.268031 255 255 255 255
-0.838022 1.206352 0.159312 0.905629 -0.328627 0.268031 255 255 255 255
-1.222113 1.355094 0.243526 -0.154093 0.293296 0.943522 255 255 255 255
-1.088260 1.242778 0.300300 -0.154093 0.293296 0.943522 255 255 255 255
-1.065744 1.397434 0.255902 -0.154093 0.293296 0.943522 255 255 255 255
-1.222113 1.355094 0.243526 -0.353103 0.051398 0.934171 255 255 255 255
-1.248581 1.173285 0.243524 -0.353103 0.051398 0.934171 255 255 255 255
-1.088260 1.242778 0.300300 -0.353103 0.051398 0.934171 255 255 255 255
-1.248581 1.173285 0.243524 -0.231325 -0.237184 0.943521 255 255 255 255
-1.110776 1.088123 0.255902 -0.231325 -0.237184 0.943521 255 255 255 255
-1.088260 1.242778 0.300300 -0.231325 -0.237184 0.943521 255 255 255 255
-0.954408 1.130463 0.243526 0.695586 -0.419671 0.583126 255 255 255 255
-0.871683 1.061048 0.094889 0.695586 -0.419671 0.583126 255 255 255 255
-0.838022 1.206352 0.159312 0.695586 -0.419671 0.583126 255 255 255 255
-0.954408 1.130463 0.243526 0.488158 -0.654501 0.577348 255 255 255 255
-1.032003 0.991555 0.151663 0.488158 -0.654501 0.577348 255 255 255 255
-0.871683 1.061048 0.094889 0.488158 -0.654501 0.577348 255 255 255 255
-1.032003 0.991555 0.151663 0.469181 -0.824976 0.315094 255 255 255 255
-0.970034 0.970028 0.003028 0.469181 -0.824976 0.315094 255 255 255 255
-0.871683 1.061048 0.094889 0.469181 -0.824976 0.315094 255 255 255 255
-1.382431 1.285600 0.003028 -0.905629 0.328627 0.268031 255 255 255 255
-1.338498 1.279205 0.159312 -0.905629 0.328627 0.268031 255 255 255 255
-1.304838 1.424509 0.094889 -0.905629 0.328627 0.268031 255 255 255 255
-1.347661 1.130336 0.094889 -0.786368 -0.203944 0.583122 255 255 255 255
-1.248581 1.173285 0.243524 -0.786368 -0.203944 0.583122 255 255 255 255
-1.338498 1.279205 0.159312 -0.786368 -0.203944 0.583122 255 255 255 255
-1.347661 1.130336 0.094889 -0.654501 -0.488160 0.577345 255 255 255 255
-1.213811 1.018022 0.151663 -0.654501 -0.488160 0.577345 255 255 255 255
-1.248581 1.173285 0.243524 -0.654501 -0.488160 0.577345 255 255 255 255
-1.213811 1.018022 0.151663 -0.395815 -0.531658 0.748779 255 255 255 255
-1.110776 1.088123 0.255902 -0.395815 -0.531658 0.748779 255 255 255 255
-1.248581 1.173285 0.243524 -0.395815 -0.531658 0.748779 255 255 255 255
-1.213811 1.018022 0.151663 -0.112061 -0.769756 0.628425 255 255 255 255
-1.032003 0.991555 0.151663 -0.112061 -0.769756 0.628425 255 255 255 255
-1.110776 1.088123 0.255902 -0.112061 -0.769756 0.628425 255 255 255 255
-1.213811 1.018022 0.151663 -0.134577 -0.924428 0.356821 255 255 255 255
-1.131084 0.948608 0.003028 -0.134577 -0.924428 0.356821 255 255 255 255
-1.032003 0.991555 0.151663 -0.134577 -0.924428 0.356821 255 255 255 255
-1.382431 1.285600 0.003028 -0.961734 -0.056795 0.268032 255 255 255 255
-1.347661 1.130336 0.094889 -0.961734 -0.056795 0.268032 255 255 255 255
-1.338498 1.279205 0.159312 -0.961734 -0.056795 0.268032 255 255 255 255
-0.826476 1.468898 0.172895 0.227802 -0.622439 0.748783 255 255 255 255
-0.773560 1.404029 0.102873 0.227802 -0.622439 0.748783 255 255 255 255
-0.721436 1.497339 0.164581 0.227802 -0.622439 0.748783 255 255 255 255
-0.979447 1.597256 0.108011 -0.621877 0.090528 0.777865 255 255 255 255
-0.919045 1.526105 0.164580 -0.621877 0.090528 0.777865 255 255 255 255
-0.901265 1.648234 0.164581 -0.621877 0.090528 0.777865 255 255 255 255
-0.826476 1.468898 0.172895 0.154093 -0.293296 0.943522 255 255 255 255
-0.721436 1.497339 0.164581 0.154093 -0.293296 0.943522 255 255 255 255
-0.811351 1.572786 0.202719 0.154093 -0.293296 0.943522 255 255 255 255
-0.979447 1.597256 0.108011 -0.695586 0.419671 0.583126 255 255 255 255
-0.901265 1.648234 0.164581 -0.695586 0.419671 0.583126 255 255 255 255
-0.956836 1.694863 0.064735 -0.695586 0.419671 0.583126 255 255 255 255
-0.643255 1.548317 0.108011 0.961735 0.056797 0.268031 255 255 255 255
-0.613743 1.544021 0.003028 0.961735 0.056797 0.268031 255 255 255 255
-0.637100 1.648319 0.064735 0.961735 0.056797 0.268031 255 255 255 255
-0.796226 1.676675 0.172895 0.395816 0.531658 0.748779 255 255 255 255
-0.703656 1.619468 0.164580 0.395816 0.531658 0.748779 255 255 255 255
-0.727013 1.723765 0.102873 0.395816 0.531658 0.748779 255 255 255 255
-0.890769 1.756005 0.003028 -0.129318 0.972293 0.194737 255 255 255 255
-0.849142 1.741544 0.102873 -0.129318 0.972293 0.194737 255 255 255 255
-0.782584 1.770394 0.003028 -0.129318 0.972293 0.194737 255 255 255 255
-0.782584 1.770394 0.003028 0.401157 0.895070 0.194738 255 255 255 255
-0.727013 1.723765 0.102873 0.401157 0.895070 0.194738 255 255 255 255
-0.682992 1.725758 0.003028 0.401157 0.895070 0.194738 255 255 255 255
-0.782584 1.770394 0.003028 0.134577 0.924428 0.356821 255 255 255 255
-0.849142 1.741544 0.102873 0.134577 0.924428 0.356821 255 255 255 255
-0.727013 1.723765 0.102873 0.134577 0.924428 0.356821 255 255 255 255
-0.849142 1.741544 0.102873 0.112061 0.769756 0.628425 255 255 255 255
-0.796226 1.676675 0.172895 0.112061 0.769756 0.628425 255 255 255 255
-0.727013 1.723765 0.102873 0.112061 0.769756 0.628425 255 255 255 255
-0.727013 1.723765 0.102873 0.684914 0.656971 0.315092 255 255 255 255
-0.637100 1.648319 0.064735 0.684914 0.656971 0.315092 255 255 255 255
-0.682992 1.725758 0.003028 0.684914 0.656971 0.315092 255 255 255 255
-0.727013 1.723765 0.102873 0.654502 0.488160 0.577345 255 255 255 255
-0.703656 1.619468 0.164580 0.654502 0.488160 0.577345 255 255 255 255
-0.637100 1.648319 0.064735 0.654502 0.488160 0.577345 255 255 255 255
-0.703656 1.619468 0.164580 0.786368 0.203946 0.583122 255 255 255 255
-0.643255 1.548317 0.108011 0.786368 0.203946 0.583122 255 255 255 255
-0.637100 1.648319 0.064735 0.786368 0.203946 0.583122 255 255 255 255
-0.637100 1.648319 0.064735 0.860281 0.509821 -0.000000 255 255 255 255
-0.637100 1.648319 -0.058678 0.860281 0.509821 -0.000000 255 255 255 255
-0.682992 1.725758 0.003028 0.860281 0.509821 -0.000000 255 255 255 255
-0.637100 1.648319 0.064735 0.975830 0.218532 0.000000 255 255 255 255
-0.613743 1.544021 0.003028 0.975830 0.218532 0.000000 255 255 255 255
-0.637100 1.648319 -0.058678 0.975830 0.218532 0.000000 255 255 255 255
-0.956836 1.694863 0.064735 -0.469180 0.824976 0.315096 255 255 255 255
-0.849142 1.741544 0.102873 -0.469180 0.824976 0.315096 255 255 255 255
-0.890769 1.756005 0.003028 -0.469180 0.824976 0.315096 255 255 255 255
-0.956836 1.694863 0.064735 -0.488157 0.654501 0.577348 255 255 255 255
-0.901265 1.648234 0.164581 -0.488157 0.654501 0.577348 255 255 255 255
-0.849142 1.741544 0.102873 -0.488157 0.654501 0.577348 255 255 255 255
-0.901265 1.648234 0.164581 -0.227802 0.622439 0.748783 255 255 255 255
-0.796226 1.676675 0.172895 -0.227802 0.622439 0.748783 255 255 255 255
-0.849142 1.741544 0.102873 -0.227802 0.622439 0.748783 255 255 255 255
-0.811351 1.572786 0.202719 0.231325 0.237184 0.943521 255 255 255 255
-0.703656 1.619468 0.164580 0.231325 0.237184 0.943521 255 255 255 255
-0.796226 1.676675 0.172895 0.231325 0.237184 0.943521 255 255 255 255
-0.811351 1.572786 0.202719 0.353103 -0.051398 0.934171 255 255 255 255
-0.721436 1.497339 0.164581 0.353103 -0.051398 0.934171 255 255 255 255
-0.703656 1.619468 0.164580 0.353103 -0.051398 0.934171 255 255 255 255
-0.721436 1.497339 0.164581 0.621877 -0.090528 0.777865 255 255 255 255
-0.643255 1.548317 0.108011 0.621877 -0.090528 0.777865 255 255 255 255
-0.703656 1.619468 0.164580 0.621877 -0.090528 0.777865 255 255 255 255
-0.665866 1.450710 0.064735 0.905629 -0.328627 0.268031 255 255 255 255
-0.613743 1.544021 0.003028 0.905629 -0.328627 0.268031 255 255 255 255
-0.643255 1.548317 0.108011 0.905629 -0.328627 0.268031 255 255 255 255
-0.901265 1.648234 0.164581 -0.154093 0.293296 0.943522 255 255 255 255
-0.811351 1.572786 0.202719 -0.154093 0.293296 0.943522 255 255 255 255
-0.796226 1.676675 0.172895 -0.154093 0.293296 0.943522 255 255 255 255
-0.901265 1.648234 0.164581 -0.353103 0.051398 0.934171 255 255 255 255
-0.919045 1.526105 0.164580 -0.353103 0.051398 0.934171 255 255 255 255
-0.811351 1.572786 0.202719 -0.353103 0.051398 0.934171 255 255 255 255
-0.919045 1.526105 0.164580 -0.231325 -0.237183 0.943521 255 255 255 255
-0.826476 1.468898 0.172895 -0.231325 -0.237183 0.943521 255 255 255 255
-0.811351 1.572786 0.202719 -0.231325 -0.237183 0.943521 255 255 255 255
-0.721436 1.497339 0.164581 0.695585 -0.419672 0.583126 255 255 255 255
-0.665866 1.450710 0.064735 0.695585 -0.419672 0.583126 255 255 255 255
-0.643255 1.548317 0.108011 0.695585 -0.419672 0.583126 255 255 255 255
-0.721436 1.497339 0.164581 0.488158 -0.654501 0.577347 255 255 255 255
-0.773560 1.404029 0.102873 0.488158 -0.654501 0.577347 255 255 255 255
-0.665866 1.450710 0.064735 0.488158 -0.654501 0.577347 255 255 255 255
-0.773560 1.404029 0.102873 0.469181 -0.824976 0.315095 255 255 255 255
-0.731933 1.389568 0.003028 0.469181 -0.824976 0.315095 255 255 255 255
-0.665866 1.450710 0.064735 0.469181 -0.824976 0.315095 255 255 255 255
-0.956836 1.694863 -0.058678 -0.679223 0.733932 0.000000 255 255 255 255
-0.956836 1.694863 0.064735 -0.679223 0.733932 0.000000 255 255 255 255
-0.890769 1.756005 0.003028 -0.679223 0.733932 0.000000 255 255 255 255
-1.008959 1.601552 0.003028 -0.905629 0.328627 0.268032 255 255 255 255
-0.979447 1.597256 0.108011 -0.905629 0.328627 0.268032 255 255 255 255
-0.956836 1.694863 0.064735 -0.905629 0.328627 0.268032 255 255 255 255
-0.985602 1.497254 0.064735 -0.786368 -0.203945 0.583122 255 255 255 255
-0.919045 1.526105 0.164580 -0.786368 -0.203945 0.583122 255 255 255 255
-0.979447 1.597256 0.108011 -0.786368 -0.203945 0.583122 255 255 255 255
-0.985602 1.497254 0.064735 -0.654501 -0.488160 0.577346 255 255 255 255
-0.895688 1.421808 0.102873 -0.654501 -0.488160 0.577346 255 255 255 255
-0.919045 1.526105 0.164580 -0.654501 -0.488160 0.577346 255 255 255 255
-0.895688 1.421808 0.102873 -0.395816 -0.531658 0.748779 255 255 255 255
-0.826476 1.468898 0.172895 -0.395816 -0.531658 0.748779 255 255 255 255
-0.919045 1.526105 0.164580 -0.395816 -0.531658 0.748779 255 255 255 255
-0.895688 1.421808 0.102873 -0.112061 -0.769756 0.628425 255 255 255 255
-0.773560 1.404029 0.102873 -0.112061 -0.769756 0.628425 255 255 255 255
-0.826476 1.468898 0.172895 -0.112061 -0.769756 0.628425 255 255 255 255
-0.895688 1.421808 0.102873 -0.134577 -0.924428 0.356821 255 255 255 255
-0.840117 1.375179 0.003028 -0.134577 -0.924428 0.356821 255 255 255 255
-0.773560 1.404029 0.102873 -0.134577 -0.924428 0.356821 255 255 255 255
-0.840117 1.375179 0.003028 0.129319 -0.972293 0.194736 255 255 255 255
-0.731933 1.389568 0.003028 0.129319 -0.972293 0.194736 255 255 255 255
-0.773560 1.404029 0.102873 0.129319 -0.972293 0.194736 255 255 255 255
-1.008959 1.601552 0.003028 -0.961734 -0.056796 0.268032 255 255 255 255
-0.985602 1.497254 0.064735 -0.961734 -0.056796 0.268032 255 255 255 255
-0.979447 1.597256 0.108011 -0.961734 -0.056796 0.268032 255 255 255 255
-1.857039 0.727766 -0.496972 0.642787 0.766044 0.000000 254 144 138 255
-1.857039 0.727766 0.003028 0.642787 0.766044 0.000000 255 145 136 255
-1.659495 0.562007 0.003028 0.642787 0.766044 0.000000 255 145 136 255
-1.857039 0.727766 0.503028 0.642788 0.766045 0.000000 255 145 137 255
-1.857039 0.727766 0.503028 0.639501 0.762127 -0.100999 255 145 137 255
-1.659495 0.562007 0.503028 0.639500 0.762127 -0.100999 255 145 136 255
-1.643182 0.581449 0.753029 0.639500 0.762127 -0.100999 255 83 64 255
-1.479589 0.444178 0.753029 0.639500 0.762127 -0.100999 254 92 81 255
-1.659495 0.562007 0.503028 0.642788 0.766044 0.000000 255 145 136 255
-1.625331 0.602722 0.878028 0.627489 0.747812 -0.216876 255 83 64 255
-1.806775 0.718719 0.753029 0.627489 0.747812 -0.216876 255 86 69 255
-1.740398 0.699274 0.878028 0.627489 0.747812 -0.216876 255 83 64 255
-1.560147 0.569798 0.940529 0.621054 0.740143 -0.257839 255 83 64 255
-1.625331 0.602722 0.878028 0.621053 0.740143 -0.257840 255 83 64 255
-1.740398 0.699274 0.878028 0.621053 0.740143 -0.257840 255 83 64 255
-1.669074 0.661199 0.940529 0.621053 0.740143 -0.257840 255 83 64 255
-1.857039 0.727766 0.503028 -0.766044 0.642788 0.000000 255 145 137 255
-1.857039 0.727766 0.003028 -0.766044 0.642788 0.000000 255 145 136 255
-1.863467 0.720105 0.003028 -0.766044 0.642788 0.000000 255 145 136 255
-1.461951 0.396248 0.503028 0.770729 -0.613510 0.171998 244 140 151 255
-1.479589 0.444178 0.753029 0.770729 -0.613510 0.171998 254 92 81 255
-1.485948 0.436600 0.754492 0.770729 -0.613510 0.171998 254 92 81 255
-1.857039 0.727766 0.503028 -0.749161 0.639377 0.173075 255 145 137 255
-1.863460 0.720114 0.503504 -0.749161 0.639377 0.173075 255 145 137 255
-1.813133 0.711141 0.754492 -0.749161 0.639377 0.173075 255 86 69 255
-1.479589 0.444178 0.753029 0.751383 -0.498939 0.431836 254 92 81 255
-1.510265 0.506170 0.878028 0.751383 -0.498939 0.431836 255 83 64 255
-1.516524 0.498710 0.880301 0.751383 -0.498939 0.431836 255 83 64 255
-1.806775 0.718719 0.753029 -0.645562 0.626120 0.437291 255 86 69 255
-1.813133 0.711141 0.754492 -0.645562 0.626120 0.437291 255 86 69 255
-1.746657 0.691814 0.880301 -0.645562 0.626120 0.437291 255 83 64 255
-1.510265 0.506170 0.878028 0.613201 -0.253993 0.747979 255 83 64 255
-1.560147 0.569798 0.940529 0.613201 -0.253993 0.747979 255 83 64 255
-1.566357 0.562397 0.943107 0.613201 -0.253993 0.747979 255 83 64 255
-1.740398 0.699274 0.878028 -0.373293 0.542478 0.752575 255 83 64 255
-1.746657 0.691814 0.880301 -0.373293 0.542478 0.752575 255 83 64 255
-1.675285 0.653798 0.943107 -0.373293 0.542478 0.752575 255 83 64 255
-1.566357 0.562397 0.943107 0.165725 0.197504 0.966192 255 83 64 255
-1.669074 0.661199 0.940529 0.165724 0.197503 0.966193 255 83 64 255
-1.675285 0.653798 0.943107 0.165724 0.197503 0.966193 255 83 64 255
-1.620821 0.608097 0.943107 0.165724 0.197503 0.966193 255 83 64 255
3 0 1 2
3 3 4 5
3 6 7 8
3 9 10 11
3 12 13 14
3 15 16 17
3 18 19 20
3 21 22 23
3 24 25 26
3 27 28 29
3 30 31 32
3 33 34 35
3 36 37 38
3 39 40 41
3 42 43 44
3 45 46 47
3 48 49 50
3 51 52 53
3 54 55 56
3 57 58 59
3 60 61 62
3 63 64 65
3 66 67 68
3 69 70 71
3 72 73 74
3 75 76 77
3 78 79 80
3 81 82 83
3 84 85 86
3 87 88 89
3 90 91 92
3 93 94 95
3 96 97 98
3 99 100 101
3 102 103 104
3 105 106 107
3 108 109 110
3 111 112 113
3 111 114 115
3 116 117 118
3 119 118 120
3 121 122 123
3 124 125 126
3 127 128 129
3 130 131 132
3 133 134 135
3 136 137 138
3 139 140 141
3 142 143 144
3 145 146 147
3 148 149 150
3 151 152 153
3 154 155 156
3 157 158 159
3 160 161 162
3 163 164 165
3 166 167 168
3 169 170 171
3 172 173 174
3 175 176 177
3 178 179 180
3 181 182 183
3 184 185 186
3 187 188 189
3 190 191 192
3 193 194 195
3 196 197 198
3 199 200 201
3 202 203 204
3 205 206 207
3 208 209 210
3 211 212 213
3 214 215 216
3 217 218 219
3 220 221 222
3 223 224 225
3 226 227 228
3 229 230 231
3 232 233 234
3 235 236 237
3 238 239 240
3 241 242 243
3 244 245 246
3 247 248 249
3 250 251 252
3 253 254 255
3 256 257 258
3 259 260 261
3 262 263 264
3 265 266 267
3 268 269 270
3 271 272 273
3 274 275 276
3 277 278 279
3 280 281 282
3 283 284 285
3 286 287 288
3 289 290 291
3 292 293 294
3 295 296 297
3 298 299 300
3 301 302 303
3 304 305 306
3 307 308 309
3 310 311 312
3 313 314 315
3 316 317 318
3 319 320 321
3 322 323 324
3 325 326 327
3 328 329 330
3 331 332 333
3 334 335 336
3 337 338 339
3 340 341 342
3 343 344 345
3 346 347 348
3 349 350 351
3 352 353 354
3 355 356 357
3 358 359 360
3 361 362 363
3 364 365 366
3 367 368 369
3 370 371 372
3 108 373 109
3 111 374 112
3 375 376 377
3 116 378 117
3 119 116 118
3 121 379 122
3 121 380 381
3 130 132 382
3 383 384 385
3 386 387 388
3 389 390 391
3 392 393 394
3 395 396 397
3 398 399 400
3 401 402 403
3 404 405 406
3 153 152 407
3 408 409 410
