ply
format ascii 1.0
comment Created by Blender 2.91.2 - www.blender.org
element vertex 28
property float x
property float y
property float z
property float nx
property float ny
property float nz
property uchar red
property uchar green
property uchar blue
property uchar alpha
element face 12
property list uchar uint vertex_indices
end_header
-2.145642 0.907434 1.000000 0.300706 0.953717 -0.000000 255 175 0 255
-1.415698 0.677284 -1.000000 0.300706 0.953717 -0.000000 255 130 0 255
-2.145642 0.907434 -1.000000 0.300706 0.953717 -0.000000 255 130 0 255
-1.415698 0.677284 1.000000 0.887011 0.461749 -0.000000 255 174 0 255
-1.062291 -0.001605 -1.000000 0.887011 0.461749 -0.000000 255 130 0 255
-1.415698 0.677284 -1.000000 0.887011 0.461749 -0.000000 255 130 0 255
-2.145642 0.907434 1.000000 0.287993 0.913397 0.287692 255 175 0 255
-1.603213 0.453812 1.897215 0.287993 0.913397 0.287692 255 222 58 255
-1.415698 0.677284 1.000000 0.287993 0.913397 0.287692 255 174 0 255
-1.062291 -0.001605 1.000000 0.849511 0.442227 0.287692 255 174 0 255
-1.603213 0.453812 1.897215 0.849511 0.442227 0.287692 255 222 58 255
-1.249806 -0.225077 1.897215 0.849511 0.442227 0.287692 255 255 255 255
-1.062291 -0.001605 -1.000000 0.875086 0.455541 -0.163422 255 130 0 255
-1.601589 0.455748 -2.612935 0.875086 0.455541 -0.163422 255 89 1 255
-1.415698 0.677284 -1.000000 0.875086 0.455541 -0.163422 255 130 0 255
-2.145642 0.907434 -1.000000 0.348166 0.926608 -0.142049 255 130 0 255
-1.601589 0.455748 -2.612935 0.348166 0.926608 -0.142049 255 89 1 255
-2.303385 0.719442 -2.612935 0.348166 0.926608 -0.142049 255 255 255 255
-1.415698 0.677284 1.000000 0.300706 0.953717 -0.000000 255 174 0 255
-1.062291 -0.001605 1.000000 0.887011 0.461749 -0.000000 255 174 0 255
-2.333157 0.683962 1.897215 0.287993 0.913397 0.287692 255 255 255 255
-1.415698 0.677284 1.000000 0.849511 0.442227 0.287692 255 174 0 255
-1.062291 -0.001605 -1.000000 0.852072 0.503781 -0.142049 255 130 0 255
-1.220035 -0.189597 -2.612935 0.852072 0.503781 -0.142049 255 255 255 255
-1.601589 0.455748 -2.612935 0.852072 0.503781 -0.142049 255 89 1 255
-2.145642 0.907434 -1.000000 0.296663 0.940895 -0.163422 255 130 0 255
-1.415698 0.677284 -1.000000 0.296663 0.940895 -0.163422 255 130 0 255
-1.601589 0.455748 -2.612935 0.296663 0.940895 -0.163422 255 89 1 255
3 0 1 2
3 3 4 5
3 6 7 8
3 9 10 11
3 12 13 14
3 15 16 17
3 0 18 1
3 3 19 4
3 6 20 7
3 9 21 10
3 22 23 24
3 25 26 27
