ply
format ascii 1.0
comment Created by Blender 2.91.2 - www.blender.org
element vertex 30
property float x
property float y
property float z
property float nx
property float ny
property float nz
property uchar red
property uchar green
property uchar blue
property uchar alpha
element face 10
property list uchar uint vertex_indices
end_header
-1.539372 0.529895 0.000000 0.134958 -0.866851 0.479954 255 225 1 255
-1.154354 0.589837 0.000000 0.134958 -0.866851 0.479954 180 7 255 255
-1.290080 0.703725 0.243859 0.134958 -0.866851 0.479954 61 251 248 255
-1.539372 0.529895 0.000000 -0.564372 -0.280042 0.776570 255 225 1 255
-1.290080 0.703725 0.243859 -0.564372 -0.280042 0.776570 61 251 248 255
-1.509684 0.887994 0.150712 -0.564372 -0.280042 0.776570 180 10 255 255
-1.290080 0.703725 0.243859 0.550514 -0.595877 0.584692 61 251 248 255
-1.154354 0.589837 0.000000 0.550514 -0.595877 0.584692 180 7 255 255
-0.886712 0.984987 0.150712 0.550514 -0.595877 0.584692 180 0 255 255
-1.509684 0.887994 0.150712 -0.301429 0.118986 0.946036 180 10 255 255
-1.290080 0.703725 0.243859 -0.301429 0.118986 0.946036 61 251 248 255
-1.106316 1.169256 0.243859 -0.301429 0.118986 0.946036 20 255 255 255
-1.154354 0.589837 0.000000 0.827958 -0.560791 0.000000 180 7 255 255
-0.886712 0.984987 -0.150712 0.827958 -0.560791 0.000000 0 255 255 255
-0.886712 0.984987 0.150712 0.827958 -0.560791 0.000000 180 0 255 255
-1.290080 0.703725 0.243859 0.301429 -0.118986 0.946036 61 251 248 255
-0.886712 0.984987 0.150712 0.301429 -0.118986 0.946036 180 0 255 255
-1.106316 1.169256 0.243859 0.301429 -0.118986 0.946036 20 255 255 255
-1.509684 0.887994 0.150712 -0.550514 0.595877 0.584692 180 10 255 255
-1.106316 1.169256 0.243859 -0.550514 0.595877 0.584692 20 255 255 255
-1.242042 1.283144 0.000000 -0.550514 0.595877 0.584692 180 2 255 255
-0.886712 0.984987 0.150712 0.996581 -0.082622 0.000000 180 0 255 255
-0.886712 0.984987 -0.150712 0.996581 -0.082622 0.000000 0 255 255 255
-0.857024 1.343087 0.000000 0.996581 -0.082622 0.000000 255 225 0 255
-1.106316 1.169256 0.243859 0.564372 0.280042 0.776570 20 255 255 255
-0.886712 0.984987 0.150712 0.564372 0.280042 0.776570 180 0 255 255
-0.857024 1.343087 0.000000 0.564372 0.280042 0.776570 255 225 0 255
-1.242042 1.283144 0.000000 -0.134958 0.866851 0.479954 180 2 255 255
-1.106316 1.169256 0.243859 -0.134958 0.866851 0.479954 20 255 255 255
-0.857024 1.343087 0.000000 -0.134958 0.866851 0.479954 255 225 0 255
3 0 1 2
3 3 4 5
3 6 7 8
3 9 10 11
3 12 13 14
3 15 16 17
3 18 19 20
3 21 22 23
3 24 25 26
3 27 28 29
