ply
format ascii 1.0
comment Created by Blender 2.91.2 - www.blender.org
element vertex 60
property float x
property float y
property float z
property float nx
property float ny
property float nz
property uchar red
property uchar green
property uchar blue
property uchar alpha
element face 58
property list uchar uint vertex_indices
end_header
-1.618854 0.730567 -0.020985 0.897702 -0.314005 0.309000 255 255 255 255
-1.642140 0.738713 0.054940 0.554796 -0.194067 0.809015 255 255 255 255
-1.655845 0.630451 0.086335 0.634236 0.140172 0.760308 255 255 255 255
-1.717496 0.765071 0.054940 -0.554796 0.194067 0.809015 255 240 240 255
-1.774261 0.671872 0.086335 -0.408582 0.504959 0.760308 255 255 255 255
-1.740782 0.773217 -0.020985 -0.897702 0.314005 0.309000 255 255 255 255
-1.382818 0.828651 -0.082855 0.945402 0.181738 0.270455 255 24 0 255
-1.415239 0.894829 -0.065812 0.876919 0.425581 0.223273 255 24 0 255
-1.488267 0.920374 0.172296 0.610370 0.595416 0.522385 255 24 0 255
-1.798573 0.927867 0.234256 -0.683645 0.318583 0.656545 255 25 6 255
-1.772279 0.964880 0.216916 -0.271859 0.692679 0.668020 255 24 0 255
-1.864218 0.997040 -0.082855 -0.625996 0.731407 0.270455 255 24 0 255
-1.477268 0.815477 0.234256 0.665120 0.181158 0.724387 255 65 61 255
-1.377979 0.780746 -0.089478 0.956175 0.056887 0.287149 255 27 13 255
-1.474758 0.860810 0.216916 0.644368 0.372173 0.667989 255 24 0 255
-1.724588 1.003037 0.172296 -0.106143 0.846065 0.522385 255 24 0 255
-1.689064 1.023955 0.135650 -0.066225 0.873165 0.482864 255 140 138 255
-1.746559 1.044066 -0.051814 -0.364574 0.907346 0.209143 255 24 0 255
-1.445512 0.938762 -0.051814 0.850673 0.482253 0.209143 255 24 0 255
-1.503007 0.958873 0.135650 0.596057 0.641469 0.482864 255 24 0 255
-1.641669 1.058262 0.089665 -0.100436 0.850124 0.516861 255 24 0 255
-1.605177 1.083392 0.053677 -0.141850 0.818720 0.556352 255 24 0 255
-1.627928 1.091350 -0.020502 -0.468215 0.851772 0.234962 255 24 0 255
-1.518684 1.015243 0.089665 0.608448 0.602161 0.516861 255 24 0 255
-1.679673 1.071555 -0.034249 -0.412641 0.883572 0.221320 255 24 0 255
-1.480680 1.001949 -0.034249 0.873409 0.433699 0.221320 255 24 0 255
-1.508804 1.049682 -0.020502 0.897061 0.374218 0.234962 255 24 5 255
-1.531555 1.057640 0.053677 0.621235 0.551805 0.556352 255 115 113 255
-1.535182 1.094922 0.032022 0.642048 0.409711 0.647969 255 24 0 255
-1.579103 1.110285 0.032022 -0.246681 0.720573 0.647969 255 24 0 255
-1.592675 1.115032 -0.012231 -0.597278 0.757164 0.264412 255 24 2 255
-1.521610 1.090174 -0.012231 0.939024 0.219764 0.264412 255 25 2 255
-1.538116 1.156997 0.000001 0.236915 0.677328 0.696463 255 28 15 255
-1.703791 0.873334 0.086335 -0.634236 -0.140172 0.760308 255 255 255 255
-1.740384 0.886133 -0.032977 -0.954405 0.034822 0.296426 255 255 255 255
-1.585375 0.831913 0.086335 0.408582 -0.504959 0.760308 255 255 255 255
-1.548782 0.819113 -0.032977 0.768029 -0.567644 0.296426 255 255 255 255
-1.340514 0.524911 -0.199879 0.582479 0.781859 0.222294 255 113 185 255
-1.954464 0.761751 0.575838 0.582479 0.781859 0.222294 180 40 86 255
-1.510266 0.389025 0.722865 0.582479 0.781859 0.222294 180 40 86 255
-1.308994 0.220138 -0.709684 0.953177 0.281864 -0.109572 180 43 87 255
-1.340514 0.524911 -0.199879 0.953177 0.281864 -0.109572 255 113 185 255
-1.188280 0.118847 0.079857 0.953177 0.281864 -0.109572 180 40 86 255
-1.740964 0.582603 -0.919788 0.422753 0.891332 -0.163727 186 79 108 255
-2.064430 0.854023 -0.277382 0.422753 0.891332 -0.163727 180 41 86 255
-1.340514 0.524911 -0.199879 0.422753 0.891332 -0.163727 255 113 185 255
-1.340514 0.524911 -0.199879 0.409365 0.911221 0.045784 255 113 185 255
-2.064430 0.854023 -0.277382 0.409365 0.911221 0.045784 180 41 86 255
-1.954464 0.761751 0.575838 0.409365 0.911221 0.045784 180 40 86 255
-1.188280 0.118847 0.079857 0.850482 0.474798 0.226378 180 40 86 255
-1.340514 0.524911 -0.199879 0.850482 0.474798 0.226378 255 113 185 255
-1.510266 0.389025 0.722865 0.850482 0.474798 0.226378 180 40 86 255
-1.619252 0.617651 -0.032977 0.954405 -0.034822 0.296426 255 204 204 255
-1.810854 0.684671 -0.032977 -0.768029 0.567644 0.296426 255 254 253 255
-1.750671 0.949079 0.181662 -0.272835 -0.780023 -0.563097 255 253 253 255
-1.897862 0.962597 -0.089478 -0.712241 0.640492 0.287149 255 24 0 255
-1.797615 1.028581 -0.065812 -0.420423 0.879391 0.223273 255 24 0 255
-1.340514 0.524911 -0.199879 0.695953 0.634481 -0.336278 255 113 185 255
-1.308994 0.220138 -0.709684 0.695953 0.634481 -0.336278 180 43 87 255
-1.740964 0.582603 -0.919788 0.695953 0.634481 -0.336278 186 79 108 255
3 0 1 2
3 2 1 3
3 4 3 5
3 6 7 8
3 9 10 11
3 12 13 6
3 9 12 14
3 15 16 17
3 10 14 8
3 11 10 15
3 8 7 18
3 8 19 16
3 20 21 22
3 16 19 23
3 16 20 24
3 19 18 25
3 23 25 26
3 20 23 27
3 21 27 28
3 21 29 30
3 27 26 31
3 29 32 30
3 31 32 28
3 28 32 29
3 33 34 5
3 1 35 33
3 0 36 35
3 37 38 39
3 40 41 42
3 43 44 45
3 46 47 48
3 49 50 51
3 0 2 52
3 2 3 4
3 4 5 53
3 54 12 9
3 6 8 14
3 9 11 55
3 12 6 14
3 9 14 10
3 15 17 56
3 10 8 15
3 11 15 56
3 8 18 19
3 8 16 15
3 20 22 24
3 16 23 20
3 16 24 17
3 19 25 23
3 23 26 27
3 20 27 21
3 21 28 29
3 21 30 22
3 27 31 28
3 33 5 3
3 1 33 3
3 0 35 1
3 57 58 59
