ply
format ascii 1.0
comment Created by Blender 2.91.2 - www.blender.org
element vertex 32
property float x
property float y
property float z
property float nx
property float ny
property float nz
property uchar red
property uchar green
property uchar blue
property uchar alpha
element face 12
property list uchar uint vertex_indices
end_header
-0.707107 -0.019462 1.000000 -0.382683 0.923880 -0.000000 255 175 0 255
0.000000 0.273431 -1.000000 -0.382683 0.923880 -0.000000 255 130 0 255
-0.707107 -0.019462 -1.000000 -0.382683 0.923880 -0.000000 255 130 0 255
0.000000 0.273431 1.000000 0.382684 0.923879 -0.000000 255 174 0 255
0.707107 -0.019463 -1.000000 0.382684 0.923879 -0.000000 255 130 0 255
0.000000 0.273431 -1.000000 0.382684 0.923879 -0.000000 255 130 0 255
-0.707107 -0.019462 1.000000 -0.366505 0.884821 0.287692 255 175 0 255
0.000000 -0.018291 1.897215 -0.366505 0.884821 0.287692 255 222 58 255
0.000000 0.273431 1.000000 -0.366505 0.884821 0.287692 255 174 0 255
0.707107 -0.019462 1.000000 0.366505 0.884821 0.287692 255 174 0 255
0.000000 -0.018291 1.897215 0.366505 0.884821 0.287692 255 222 58 255
0.707107 -0.311185 1.897215 0.366505 0.884821 0.287692 255 255 255 255
0.707107 -0.019463 -1.000000 0.377539 0.911459 -0.163422 255 130 0 255
0.000000 -0.015764 -2.612935 0.377539 0.911459 -0.163422 255 89 1 255
0.000000 0.273431 -1.000000 0.377539 0.911459 -0.163422 255 130 0 255
-0.707107 -0.019462 -1.000000 -0.328901 0.933620 -0.142049 255 130 0 255
0.000000 -0.015764 -2.612935 -0.328901 0.933620 -0.142049 255 89 1 255
-0.707107 -0.264868 -2.612935 -0.328901 0.933620 -0.142049 255 255 255 255
-0.707107 -0.019462 1.000000 -0.382684 0.923880 -0.000000 255 175 0 255
0.000000 0.273431 1.000000 -0.382684 0.923880 -0.000000 255 174 0 255
0.000000 0.273431 -1.000000 -0.382684 0.923880 -0.000000 255 130 0 255
0.707107 -0.019462 1.000000 0.382684 0.923879 -0.000000 255 174 0 255
-0.707107 -0.311184 1.897215 -0.366505 0.884821 0.287692 255 255 255 255
0.707107 -0.019462 1.000000 0.366505 0.884820 0.287692 255 174 0 255
0.000000 0.273431 1.000000 0.366505 0.884820 0.287692 255 174 0 255
0.000000 -0.018291 1.897215 0.366505 0.884820 0.287692 255 222 58 255
0.707107 -0.019463 -1.000000 0.328901 0.933620 -0.142049 255 130 0 255
0.707107 -0.264868 -2.612935 0.328901 0.933620 -0.142049 255 255 255 255
0.000000 -0.015764 -2.612935 0.328901 0.933620 -0.142049 255 89 1 255
-0.707107 -0.019462 -1.000000 -0.377539 0.911459 -0.163422 255 130 0 255
0.000000 0.273431 -1.000000 -0.377539 0.911459 -0.163422 255 130 0 255
0.000000 -0.015764 -2.612935 -0.377539 0.911459 -0.163422 255 89 1 255
3 0 1 2
3 3 4 5
3 6 7 8
3 9 10 11
3 12 13 14
3 15 16 17
3 18 19 20
3 3 21 4
3 6 22 7
3 23 24 25
3 26 27 28
3 29 30 31
