ply
format ascii 1.0
comment Created by Blender 2.91.2 - www.blender.org
element vertex 27
property float x
property float y
property float z
property float nx
property float ny
property float nz
property uchar red
property uchar green
property uchar blue
property uchar alpha
element face 9
property list uchar uint vertex_indices
end_header
0.000000 0.081028 0.000000 0.660585 -0.577297 0.479954 255 225 1 255
0.256411 0.374431 0.000000 0.660585 -0.577297 0.479954 180 7 255 255
0.079233 0.374431 0.243859 0.660585 -0.577297 0.479954 61 251 248 255
0.000000 0.081028 0.000000 -0.252327 -0.577296 0.776570 255 225 1 255
0.079233 0.374431 0.243859 -0.252327 -0.577296 0.776570 61 251 248 255
-0.207439 0.374431 0.150712 -0.252327 -0.577296 0.776570 180 10 255 255
0.079233 0.374431 0.243859 0.804741 -0.102605 0.584692 61 251 248 255
0.256411 0.374431 0.000000 0.804741 -0.102605 0.584692 180 7 255 255
0.207439 0.849171 0.150712 0.804741 -0.102605 0.584692 180 0 255 255
-0.207439 0.374431 0.150712 -0.307391 -0.102606 0.946036 180 10 255 255
0.079233 0.374431 0.243859 -0.307391 -0.102606 0.946036 61 251 248 255
-0.079233 0.849171 0.243859 -0.307391 -0.102606 0.946036 20 255 255 255
0.079233 0.374431 0.243859 0.307391 0.102606 0.946036 61 251 248 255
0.207439 0.849171 0.150712 0.307391 0.102606 0.946036 180 0 255 255
-0.079233 0.849171 0.243859 0.307391 0.102606 0.946036 20 255 255 255
-0.207439 0.374431 0.150712 -0.804741 0.102605 0.584692 180 10 255 255
-0.079233 0.849171 0.243859 -0.804741 0.102605 0.584692 20 255 255 255
-0.256411 0.849171 0.000000 -0.804741 0.102605 0.584692 180 2 255 255
0.207439 0.849171 0.150712 0.816534 0.577298 -0.000000 180 0 255 255
0.207439 0.849171 -0.150712 0.816534 0.577298 -0.000000 0 255 255 255
0.000000 1.142574 0.000000 0.816534 0.577298 -0.000000 255 225 0 255
-0.079233 0.849171 0.243859 0.252327 0.577296 0.776570 20 255 255 255
0.207439 0.849171 0.150712 0.252327 0.577296 0.776570 180 0 255 255
0.000000 1.142574 0.000000 0.252327 0.577296 0.776570 255 225 0 255
-0.256411 0.849171 0.000000 -0.660585 0.577297 0.479954 180 2 255 255
-0.079233 0.849171 0.243859 -0.660585 0.577297 0.479954 20 255 255 255
0.000000 1.142574 0.000000 -0.660585 0.577297 0.479954 255 225 0 255
3 0 1 2
3 3 4 5
3 6 7 8
3 9 10 11
3 12 13 14
3 15 16 17
3 18 19 20
3 21 22 23
3 24 25 26
