ply
format ascii 1.0
comment Created by Blender 2.91.2 - www.blender.org
element vertex 99
property float x
property float y
property float z
property float nx
property float ny
property float nz
property uchar red
property uchar green
property uchar blue
property uchar alpha
element face 105
property list uchar uint vertex_indices
end_header
-0.121266 0.195048 -0.020985 0.973876 0.213965 -0.075930 255 255 255 255
-0.144573 0.186963 0.054940 0.555315 0.192633 0.809015 255 255 255 255
-0.088049 0.093617 0.086335 0.409864 0.503891 0.760308 255 255 255 255
-0.219996 0.160799 0.054940 -0.555315 -0.192633 0.809015 255 240 240 255
-0.206572 0.052502 0.086335 -0.633869 0.141820 0.760308 255 255 255 255
-0.243304 0.152714 -0.020985 -0.898526 -0.311686 0.309000 255 255 255 255
0.002748 0.418552 -0.082855 0.627857 0.729789 0.270455 255 24 0 255
-0.063773 0.450265 -0.065812 0.422712 0.878323 0.223273 255 24 0 255
-0.136866 0.424910 0.172296 0.108310 0.845759 0.522385 255 24 0 255
-0.384670 0.237989 0.234256 -0.642933 0.243751 0.726066 255 25 6 255
-0.387063 0.283329 0.216916 -0.643391 0.373852 0.668020 255 24 0 255
-0.479085 0.251407 -0.082855 -0.944945 0.184179 0.270455 255 24 0 255
-0.063075 0.349548 0.234256 0.353862 0.589526 0.726066 255 65 61 255
0.036303 0.384022 -0.089478 0.713889 0.638661 0.287149 255 27 13 255
-0.089274 0.386630 0.216916 0.273659 0.691977 0.668020 255 24 0 255
-0.373400 0.342857 0.172296 -0.608814 0.597003 0.522385 255 24 0 255
-0.358561 0.381319 0.135650 -0.594409 0.643025 0.482864 255 140 138 255
-0.416107 0.361356 -0.051814 -0.849422 0.484451 0.209143 255 24 0 255
-0.114789 0.465881 -0.051814 0.366924 0.906400 0.209143 255 24 0 255
-0.172335 0.445919 0.135650 0.068484 0.872982 0.482864 255 24 0 255
-0.342737 0.437648 0.089665 -0.606891 0.603717 0.516861 255 24 0 255
-0.329757 0.480011 0.053677 -0.619800 0.553392 0.556352 255 24 0 255
-0.352528 0.472112 -0.020502 -0.896084 0.376537 0.234962 255 24 0 255
-0.219642 0.480349 0.089665 0.102634 0.849879 0.516861 255 24 0 255
-0.380776 0.424452 -0.034249 -0.872280 0.435957 0.221320 255 24 0 255
-0.181604 0.493544 -0.034249 0.414899 0.882504 0.221320 255 24 0 255
-0.233297 0.513472 -0.020502 0.470412 0.850581 0.234962 255 24 5 255
-0.256068 0.505573 0.053677 0.143956 0.818354 0.556352 255 115 113 255
-0.282073 0.532533 0.032022 0.248543 0.719932 0.647969 255 24 0 255
-0.326034 0.517283 0.032022 -0.640980 0.411359 0.647969 255 24 0 255
-0.339618 0.512571 -0.012231 -0.938444 0.222175 0.264412 255 24 2 255
-0.268489 0.537245 -0.012231 0.599231 0.755608 0.264412 255 25 2 255
-0.322939 0.579351 0.000001 -0.235145 0.677938 0.696463 255 28 15 255
-0.276521 0.254146 0.086335 -0.409864 -0.503891 0.760308 255 255 255 255
-0.313146 0.241440 -0.032977 -0.769494 -0.565661 0.296426 255 255 255 255
-0.157997 0.295260 0.086335 0.633869 -0.141820 0.760308 255 255 255 255
-0.121372 0.307966 -0.032977 0.999939 -0.000061 -0.009522 255 255 255 255
0.155538 0.205034 -0.218562 -0.056364 0.973349 0.222294 255 113 185 255
-0.467013 -0.008175 0.557156 -0.056364 0.973349 0.222294 180 40 86 255
0.112846 -0.008175 0.704183 -0.056364 0.973349 0.222294 180 40 86 255
0.375588 -0.008175 -0.728367 0.548998 0.828611 -0.109572 180 43 87 255
0.155538 0.205034 -0.218562 0.548998 0.828611 -0.109572 255 113 185 255
0.533169 -0.008175 0.061174 0.548998 0.828611 -0.109572 180 40 86 255
-0.188308 -0.008175 -0.938470 -0.249089 0.954541 -0.163727 186 79 108 255
-0.610563 -0.008175 -0.296065 -0.249089 0.954541 -0.163727 180 41 86 255
0.155538 0.205034 -0.218562 -0.249089 0.954541 -0.163727 255 113 185 255
0.155538 0.205034 -0.218562 -0.272130 0.961171 0.045784 255 113 185 255
-0.610563 -0.008175 -0.296065 -0.272130 0.961171 0.045784 180 41 86 255
-0.467013 -0.008175 0.557156 -0.272130 0.961171 0.045784 180 40 86 255
0.533169 -0.008175 0.061174 0.346313 0.910396 0.226378 180 40 86 255
0.155538 0.205034 -0.218562 0.346313 0.910396 0.226378 255 113 185 255
0.112846 -0.008175 0.704183 0.346313 0.910396 0.226378 180 40 86 255
0.218704 0.132552 0.181632 0.946532 0.044404 0.319498 255 255 255 255
0.207896 0.125397 0.214646 0.392376 -0.191565 0.899625 255 255 255 255
0.210036 0.074998 0.215311 0.601367 0.036073 0.798151 255 255 255 255
0.172918 0.131063 0.216197 -0.579638 -0.119663 0.805994 255 240 240 255
0.155071 0.083902 0.217748 -0.488144 0.212561 0.846461 255 255 255 255
0.162109 0.141720 0.184141 -0.914884 0.171392 0.365459 255 255 255 255
0.272005 0.170103 0.301493 0.572069 0.282632 0.769951 255 24 0 255
0.314680 0.198353 0.171145 0.900998 0.255715 0.350383 255 24 0 255
0.295507 0.221951 0.185455 0.792230 0.488784 0.365307 255 24 0 255
0.125175 0.172902 0.310246 -0.447188 0.312052 0.838221 255 25 6 255
0.133904 0.192475 0.307617 -0.385205 0.437696 0.812403 255 24 0 255
0.091229 0.234551 0.181054 -0.740745 0.521653 0.423200 255 24 0 255
0.274315 0.148742 0.303633 0.593280 0.143498 0.792077 255 65 61 255
0.320402 0.179249 0.162865 0.932737 0.134373 0.334483 255 27 13 255
0.151917 0.217283 0.293855 -0.247810 0.649007 0.719260 255 24 0 255
0.165899 0.232992 0.281275 -0.213080 0.691702 0.689993 255 140 138 255
0.139211 0.259304 0.202128 -0.512925 0.747765 0.421552 255 24 0 255
0.261610 0.199513 0.288990 0.500778 0.527726 0.686056 255 24 0 255
0.278948 0.236667 0.195931 0.756767 0.542100 0.365246 255 24 0 255
0.252261 0.219001 0.277445 0.478866 0.579608 0.659291 255 24 0 255
0.184072 0.256313 0.266477 -0.242897 0.655263 0.715232 255 24 0 255
0.198160 0.273794 0.254685 -0.278390 0.608234 0.743309 255 24 0 255
0.187600 0.284206 0.223367 -0.605609 0.671224 0.427351 255 24 0 255
0.241157 0.247065 0.263946 0.497757 0.535264 0.682394 255 24 0 255
0.166431 0.273705 0.214161 -0.556230 0.714103 0.424970 255 24 0 255
0.258798 0.258742 0.210065 0.787408 0.496445 0.365368 255 24 0 255
0.242893 0.275248 0.220915 0.820765 0.440138 0.364086 255 24 5 255
0.232333 0.268258 0.253170 0.466262 0.489792 0.736656 255 115 113 255
0.227942 0.286280 0.248129 0.352336 0.296670 0.887570 255 24 0 255
0.207555 0.289583 0.249033 -0.365093 0.473617 0.801447 255 24 0 255
0.201255 0.295794 0.230349 -0.716819 0.552416 0.425367 255 24 2 255
0.234241 0.290450 0.228886 0.890011 0.287576 0.353710 255 25 2 255
0.221989 0.316040 0.241525 0.118839 0.498642 0.858577 255 28 15 255
0.225742 0.165193 0.240000 -0.046724 -0.521714 0.851802 255 255 255 255
0.170777 0.174097 0.242438 -0.351115 -0.500107 0.791528 255 255 255 255
-0.051423 0.106322 -0.032977 0.769494 0.565661 0.296426 255 204 204 255
-0.243197 0.039797 -0.032977 -0.954497 -0.032380 0.296426 255 254 253 255
-0.484048 0.203515 -0.089478 -0.956023 0.059358 0.287149 255 24 0 255
-0.446493 0.317502 -0.065812 -0.875820 0.427839 0.223273 255 24 0 255
-0.182285 0.173881 -0.067910 0.625233 -0.081820 -0.776116 255 255 255 255
0.227021 0.086242 0.163431 0.946532 0.044404 0.319498 255 204 204 255
0.138086 0.100649 0.167375 -0.853023 0.335917 0.399304 255 254 253 255
0.079088 0.218341 0.173566 -0.810358 0.416761 0.411786 255 24 0 255
0.118020 0.250704 0.193326 -0.563219 0.708365 0.425398 255 24 0 255
0.155538 0.205034 -0.218562 0.125295 0.933391 -0.336278 255 113 185 255
0.375588 -0.008175 -0.728367 0.125295 0.933391 -0.336278 180 43 87 255
-0.188308 -0.008175 -0.938470 0.125295 0.933391 -0.336278 186 79 108 255
3 0 1 2
3 2 1 3
3 4 3 5
3 6 7 8
3 9 10 11
3 12 13 6
3 9 12 14
3 15 16 17
3 10 14 8
3 11 10 15
3 8 7 18
3 8 19 16
3 20 21 22
3 16 19 23
3 16 20 24
3 19 18 25
3 23 25 26
3 20 23 27
3 21 27 28
3 21 29 30
3 27 26 31
3 29 32 30
3 31 32 28
3 28 32 29
3 33 34 5
3 1 35 33
3 0 36 35
3 37 38 39
3 40 41 42
3 43 44 45
3 46 47 48
3 49 50 51
3 52 53 54
3 53 55 56
3 56 55 57
3 58 59 60
3 61 62 63
3 64 65 59
3 61 64 58
3 66 67 68
3 58 69 66
3 63 62 66
3 69 60 70
3 69 71 67
3 72 73 74
3 71 75 72
3 67 72 76
3 71 70 77
3 75 77 78
3 72 75 79
3 79 80 81
3 73 81 82
3 79 78 83
3 81 84 82
3 83 84 80
3 80 84 81
3 53 85 86
3 0 2 87
3 2 3 4
3 4 5 88
3 6 8 14
3 9 11 89
3 12 6 14
3 9 14 10
3 15 17 90
3 10 8 15
3 11 15 90
3 8 18 19
3 8 16 15
3 20 22 24
3 16 23 20
3 16 24 17
3 19 25 23
3 23 26 27
3 20 27 21
3 21 28 29
3 21 30 22
3 27 31 28
3 33 5 3
3 1 33 3
3 0 35 1
3 91 36 0
3 52 54 92
3 53 56 54
3 56 57 93
3 58 60 69
3 61 63 94
3 64 59 58
3 61 58 62
3 66 68 95
3 58 66 62
3 63 66 95
3 69 70 71
3 69 67 66
3 72 74 76
3 71 72 67
3 67 76 68
3 71 77 75
3 75 78 79
3 72 79 73
3 79 81 73
3 73 82 74
3 86 57 55
3 53 86 55
3 96 97 98
