ply
format ascii 1.0
comment Created by Blender 2.91.2 - www.blender.org
element vertex 398
property float x
property float y
property float z
property float nx
property float ny
property float nz
property uchar red
property uchar green
property uchar blue
property uchar alpha
element face 140
property list uchar uint vertex_indices
end_header
1.633867 0.730542 0.328562 0.652540 0.116255 0.748784 255 255 255 255
1.774492 0.809151 0.193807 0.652540 0.116255 0.748784 255 255 255 255
1.615066 0.939121 0.312563 0.652540 0.116255 0.748784 255 255 255 255
1.339478 0.483520 0.203694 -0.197141 -0.596710 0.777865 255 255 255 255
1.494511 0.574218 0.312561 -0.197141 -0.596710 0.777865 255 255 255 255
1.268990 0.648728 0.312563 -0.197141 -0.596710 0.777865 255 255 255 255
1.633867 0.730542 0.328562 0.315598 0.100821 0.943522 255 255 255 255
1.615066 0.939121 0.312563 0.315598 0.100821 0.943522 255 255 255 255
1.442028 0.793924 0.385957 0.315598 0.100821 0.943522 255 255 255 255
1.339478 0.483520 0.203694 -0.534082 -0.612143 0.583127 255 255 255 255
1.268990 0.648728 0.312563 -0.534082 -0.612143 0.583127 255 255 255 255
1.162046 0.558992 0.120412 -0.534082 -0.612143 0.583127 255 255 255 255
1.544577 1.104329 0.203694 0.111071 0.956986 0.268032 255 255 255 255
1.562581 1.158825 0.001659 0.111071 0.956986 0.268032 255 255 255 255
1.357108 1.149413 0.120411 0.111071 0.956986 0.268032 255 255 255 255
1.250188 0.857307 0.328562 -0.454848 0.482124 0.748779 255 255 255 255
1.389545 1.013631 0.312561 -0.454848 0.482124 0.748779 255 255 255 255
1.184072 1.004218 0.193806 -0.454848 0.482124 0.748779 255 255 255 255
1.068245 0.704637 0.001659 -0.979978 0.041483 0.194736 255 255 255 255
1.109563 0.778698 0.193807 -0.979978 0.041483 0.194736 255 255 255 255
1.077128 0.914481 0.001659 -0.979978 0.041483 0.194736 255 255 255 255
1.077128 0.914481 0.001659 -0.811811 0.550491 0.194737 255 255 255 255
1.184072 1.004218 0.193806 -0.811811 0.550491 0.194737 255 255 255 255
1.195005 1.088314 0.001659 -0.811811 0.550491 0.194737 255 255 255 255
1.077128 0.914481 0.001659 -0.887015 0.293058 0.356821 255 255 255 255
1.109563 0.778698 0.193807 -0.887015 0.293058 0.356821 255 255 255 255
1.184072 1.004218 0.193806 -0.887015 0.293058 0.356821 255 255 255 255
1.109563 0.778698 0.193807 -0.738603 0.244025 0.628425 255 255 255 255
1.250188 0.857307 0.328562 -0.738603 0.244025 0.628425 255 255 255 255
1.184072 1.004218 0.193806 -0.738603 0.244025 0.628425 255 255 255 255
1.184072 1.004218 0.193806 -0.528057 0.788590 0.315090 255 255 255 255
1.357108 1.149413 0.120411 -0.528057 0.788590 0.315090 255 255 255 255
1.195005 1.088314 0.001659 -0.528057 0.788590 0.315090 255 255 255 255
1.184072 1.004218 0.193806 -0.367090 0.729326 0.577345 255 255 255 255
1.389545 1.013631 0.312561 -0.367090 0.729326 0.577345 255 255 255 255
1.357108 1.149413 0.120411 -0.367090 0.729326 0.577345 255 255 255 255
1.389545 1.013631 0.312561 -0.064295 0.809836 0.583122 255 255 255 255
1.544577 1.104329 0.203694 -0.064295 0.809836 0.583122 255 255 255 255
1.357108 1.149413 0.120411 -0.064295 0.809836 0.583122 255 255 255 255
1.357108 1.149413 0.120411 -0.352692 0.935740 0.000000 255 255 255 255
1.357108 1.149413 -0.117094 -0.352692 0.935740 0.000000 255 255 255 255
1.195005 1.088314 0.001659 -0.352692 0.935740 0.000000 255 255 255 255
1.357108 1.149413 0.120411 -0.045759 0.998952 0.000000 255 255 255 255
1.562581 1.158825 0.001659 -0.045759 0.998952 0.000000 255 255 255 255
1.357108 1.149413 -0.117094 -0.045759 0.998952 0.000000 255 255 255 255
1.162046 0.558992 0.120412 -0.893915 -0.318797 0.315095 255 255 255 255
1.109563 0.778698 0.193807 -0.893915 -0.318797 0.315095 255 255 255 255
1.068245 0.704637 0.001659 -0.893915 -0.318797 0.315095 255 255 255 255
1.162046 0.558992 0.120412 -0.729325 -0.367088 0.577348 255 255 255 255
1.268990 0.648728 0.312563 -0.729325 -0.367088 0.577348 255 255 255 255
1.109563 0.778698 0.193807 -0.729325 -0.367088 0.577348 255 255 255 255
1.268990 0.648728 0.312563 -0.652540 -0.116256 0.748783 255 255 255 255
1.250188 0.857307 0.328562 -0.652540 -0.116256 0.748783 255 255 255 255
1.109563 0.778698 0.193807 -0.652540 -0.116256 0.748783 255 255 255 255
1.442028 0.793924 0.385957 -0.193411 0.268997 0.943521 255 255 255 255
1.389545 1.013631 0.312561 -0.193411 0.268997 0.943521 255 255 255 255
1.250188 0.857307 0.328562 -0.193411 0.268997 0.943521 255 255 255 255
1.442028 0.793924 0.385957 0.111933 0.338814 0.934171 255 255 255 255
1.615066 0.939121 0.312563 0.111933 0.338814 0.934171 255 255 255 255
1.389545 1.013631 0.312561 0.111933 0.338814 0.934171 255 255 255 255
1.615066 0.939121 0.312563 0.197141 0.596710 0.777865 255 255 255 255
1.544577 1.104329 0.203694 0.197141 0.596710 0.777865 255 255 255 255
1.389545 1.013631 0.312561 0.197141 0.596710 0.777865 255 255 255 255
1.722009 1.028857 0.120412 0.480895 0.834805 0.268032 255 255 255 255
1.562581 1.158825 0.001659 0.480895 0.834805 0.268032 255 255 255 255
1.544577 1.104329 0.203694 0.480895 0.834805 0.268032 255 255 255 255
1.268990 0.648728 0.312563 -0.315598 -0.100822 0.943522 255 255 255 255
1.442028 0.793924 0.385957 -0.315598 -0.100822 0.943522 255 255 255 255
1.250188 0.857307 0.328562 -0.315598 -0.100822 0.943522 255 255 255 255
1.268990 0.648728 0.312563 -0.111933 -0.338814 0.934171 255 255 255 255
1.494511 0.574218 0.312561 -0.111933 -0.338814 0.934171 255 255 255 255
1.442028 0.793924 0.385957 -0.111933 -0.338814 0.934171 255 255 255 255
1.494511 0.574218 0.312561 0.193411 -0.268997 0.943521 255 255 255 255
1.633867 0.730542 0.328562 0.193411 -0.268997 0.943521 255 255 255 255
1.442028 0.793924 0.385957 0.193411 -0.268997 0.943521 255 255 255 255
1.615066 0.939121 0.312563 0.534083 0.612143 0.583126 255 255 255 255
1.722009 1.028857 0.120412 0.534083 0.612143 0.583126 255 255 255 255
1.544577 1.104329 0.203694 0.534083 0.612143 0.583126 255 255 255 255
1.615066 0.939121 0.312563 0.729325 0.367089 0.577348 255 255 255 255
1.774492 0.809151 0.193807 0.729325 0.367089 0.577348 255 255 255 255
1.722009 1.028857 0.120412 0.729325 0.367089 0.577348 255 255 255 255
1.774492 0.809151 0.193807 0.893915 0.318797 0.315095 255 255 255 255
1.815810 0.883212 0.001659 0.893915 0.318797 0.315095 255 255 255 255
1.722009 1.028857 0.120412 0.893915 0.318797 0.315095 255 255 255 255
1.321474 0.429024 0.001659 -0.480894 -0.834805 0.268032 255 255 255 255
1.339478 0.483520 0.203694 -0.480894 -0.834805 0.268032 255 255 255 255
1.162046 0.558992 0.120412 -0.480894 -0.834805 0.268032 255 255 255 255
1.526947 0.438436 0.120411 0.064295 -0.809836 0.583122 255 255 255 255
1.494511 0.574218 0.312561 0.064295 -0.809836 0.583122 255 255 255 255
1.339478 0.483520 0.203694 0.064295 -0.809836 0.583122 255 255 255 255
1.526947 0.438436 0.120411 0.367091 -0.729326 0.577345 255 255 255 255
1.699983 0.583631 0.193806 0.367091 -0.729326 0.577345 255 255 255 255
1.494511 0.574218 0.312561 0.367091 -0.729326 0.577345 255 255 255 255
1.699983 0.583631 0.193806 0.454848 -0.482124 0.748779 255 255 255 255
1.633867 0.730542 0.328562 0.454848 -0.482124 0.748779 255 255 255 255
1.494511 0.574218 0.312561 0.454848 -0.482124 0.748779 255 255 255 255
1.699983 0.583631 0.193806 0.738602 -0.244025 0.628425 255 255 255 255
1.774492 0.809151 0.193807 0.738602 -0.244025 0.628425 255 255 255 255
1.633867 0.730542 0.328562 0.738602 -0.244025 0.628425 255 255 255 255
1.699983 0.583631 0.193806 0.887015 -0.293058 0.356821 255 255 255 255
1.806927 0.673368 0.001659 0.887015 -0.293058 0.356821 255 255 255 255
1.774492 0.809151 0.193807 0.887015 -0.293058 0.356821 255 255 255 255
1.321474 0.429024 0.001659 -0.111071 -0.956986 0.268032 255 255 255 255
1.526947 0.438436 0.120411 -0.111071 -0.956986 0.268032 255 255 255 255
1.339478 0.483520 0.203694 -0.111071 -0.956986 0.268032 255 255 255 255
1.451279 0.381717 0.001659 -0.642788 0.766044 0.000000 255 145 136 255
1.648823 0.547476 0.501659 -0.642788 0.766044 0.000000 255 145 136 255
1.648823 0.547476 0.001659 -0.642788 0.766044 0.000000 255 145 136 255
1.648823 0.547476 0.501659 -0.639500 0.762127 -0.100999 255 145 136 255
1.468916 0.429647 0.751659 -0.639500 0.762127 -0.100999 255 86 69 255
1.632509 0.566918 0.751659 -0.639500 0.762127 -0.100999 255 83 64 255
1.648823 0.547476 0.501659 -0.639501 0.762127 -0.100999 255 145 136 255
1.796102 0.704188 0.751659 -0.639501 0.762127 -0.100999 254 92 81 255
1.846367 0.713235 0.501659 -0.639501 0.762127 -0.100999 244 140 151 255
1.648823 0.547476 0.001659 -0.642787 0.766044 0.000000 255 145 136 255
1.846367 0.713235 0.501659 -0.642787 0.766044 0.000000 244 140 151 255
1.846367 0.713235 0.001659 -0.642787 0.766044 0.000000 255 145 136 255
1.648823 0.547476 -0.498341 -0.642787 0.766044 0.000000 255 145 136 255
1.846367 0.713235 -0.498341 -0.642787 0.766044 0.000000 252 144 140 255
1.632509 0.566918 0.751659 -0.627489 0.747812 -0.216876 255 83 64 255
1.729725 0.684743 0.876659 -0.627489 0.747812 -0.216876 255 83 64 255
1.796102 0.704188 0.751659 -0.627489 0.747812 -0.216876 254 92 81 255
1.499592 0.491639 0.876659 -0.627489 0.747812 -0.216876 255 83 64 255
1.614658 0.588191 0.876659 -0.627489 0.747812 -0.216876 255 83 64 255
1.614658 0.588191 0.876659 -0.621053 0.740143 -0.257840 255 83 64 255
1.658401 0.646668 0.939159 -0.621053 0.740143 -0.257840 255 83 64 255
1.729725 0.684743 0.876659 -0.621053 0.740143 -0.257840 255 83 64 255
1.614658 0.588191 0.876659 -0.621054 0.740143 -0.257839 255 83 64 255
1.549474 0.555267 0.939159 -0.621054 0.740143 -0.257839 255 83 64 255
1.603938 0.600968 0.939159 -0.621054 0.740143 -0.257839 255 83 64 255
1.451279 0.381717 0.501659 -0.770729 -0.613510 0.171998 255 145 137 255
1.475275 0.422069 0.753122 -0.770729 -0.613510 0.171998 255 86 69 255
1.468916 0.429647 0.751659 -0.770729 -0.613510 0.171998 255 86 69 255
1.796102 0.704188 0.751659 0.645565 0.626117 0.437292 254 92 81 255
1.735985 0.677283 0.878931 0.645565 0.626117 0.437292 255 83 64 255
1.802460 0.696610 0.753122 0.645565 0.626117 0.437292 254 92 81 255
1.468916 0.429647 0.751659 -0.751384 -0.498938 0.431836 255 86 69 255
1.505852 0.484179 0.878931 -0.751384 -0.498938 0.431836 255 83 64 255
1.499592 0.491639 0.876659 -0.751384 -0.498938 0.431836 255 83 64 255
1.729725 0.684743 0.876659 0.373293 0.542479 0.752575 255 83 64 255
1.664612 0.639267 0.941737 0.373293 0.542479 0.752575 255 83 64 255
1.735985 0.677283 0.878931 0.373293 0.542479 0.752575 255 83 64 255
1.499592 0.491639 0.876659 -0.613201 -0.253993 0.747979 255 83 64 255
1.555684 0.547866 0.941737 -0.613201 -0.253993 0.747979 255 83 64 255
1.549474 0.555267 0.939159 -0.613201 -0.253993 0.747979 255 83 64 255
1.603938 0.600968 0.939159 -0.165724 0.197502 0.966193 255 83 64 255
1.664612 0.639267 0.941737 -0.165724 0.197502 0.966193 255 83 64 255
1.658401 0.646668 0.939159 -0.165724 0.197502 0.966193 255 83 64 255
1.549474 0.555267 0.939159 -0.165725 0.197504 0.966192 255 83 64 255
1.610148 0.593566 0.941737 -0.165725 0.197504 0.966192 255 83 64 255
1.603938 0.600968 0.939159 -0.165725 0.197504 0.966192 255 83 64 255
1.225983 1.179218 0.254532 0.652540 0.116256 0.748783 255 255 255 255
1.334763 1.240026 0.150293 0.652540 0.116256 0.748783 255 255 255 255
1.211440 1.340563 0.242156 0.652540 0.116256 0.748783 255 255 255 255
0.998261 0.988136 0.157942 -0.197141 -0.596710 0.777864 255 255 255 255
1.118186 1.058295 0.242155 -0.197141 -0.596710 0.777864 255 255 255 255
0.943735 1.115932 0.242156 -0.197141 -0.596710 0.777864 255 255 255 255
1.225983 1.179218 0.254532 0.315598 0.100822 0.943521 255 255 255 255
1.211440 1.340563 0.242156 0.315598 0.100822 0.943521 255 255 255 255
1.077588 1.228247 0.298930 0.315598 0.100822 0.943521 255 255 255 255
0.998261 0.988136 0.157942 -0.534083 -0.612143 0.583126 255 255 255 255
0.943735 1.115932 0.242156 -0.534083 -0.612143 0.583126 255 255 255 255
0.861010 1.046517 0.093519 -0.534083 -0.612143 0.583126 255 255 255 255
1.156914 1.468358 0.157942 0.111071 0.956986 0.268032 255 255 255 255
1.170841 1.510513 0.001659 0.111071 0.956986 0.268032 255 255 255 255
1.011898 1.503233 0.093519 0.111071 0.956986 0.268032 255 255 255 255
0.929192 1.277277 0.254532 -0.454848 0.482124 0.748779 255 255 255 255
1.036990 1.398200 0.242155 -0.454848 0.482124 0.748779 255 255 255 255
0.878048 1.390919 0.150293 -0.454848 0.482124 0.748779 255 255 255 255
0.788451 1.159180 0.001659 -0.979978 0.041483 0.194736 255 255 255 255
0.820412 1.216469 0.150293 -0.979978 0.041483 0.194736 255 255 255 255
0.795322 1.321503 0.001659 -0.979978 0.041483 0.194736 255 255 255 255
0.795322 1.321503 0.001659 -0.811811 0.550491 0.194737 255 255 255 255
0.878048 1.390919 0.150293 -0.811811 0.550491 0.194737 255 255 255 255
0.886505 1.455971 0.001659 -0.811811 0.550491 0.194737 255 255 255 255
0.795322 1.321503 0.001659 -0.887015 0.293058 0.356821 255 255 255 255
0.820412 1.216469 0.150293 -0.887015 0.293058 0.356821 255 255 255 255
0.878048 1.390919 0.150293 -0.887015 0.293058 0.356821 255 255 255 255
0.820412 1.216469 0.150293 -0.738602 0.244025 0.628425 255 255 255 255
0.929192 1.277277 0.254532 -0.738602 0.244025 0.628425 255 255 255 255
0.878048 1.390919 0.150293 -0.738602 0.244025 0.628425 255 255 255 255
0.878048 1.390919 0.150293 -0.528057 0.788590 0.315090 255 255 255 255
1.011898 1.503233 0.093519 -0.528057 0.788590 0.315090 255 255 255 255
0.886505 1.455971 0.001659 -0.528057 0.788590 0.315090 255 255 255 255
0.878048 1.390919 0.150293 -0.367090 0.729326 0.577345 255 255 255 255
1.036990 1.398200 0.242155 -0.367090 0.729326 0.577345 255 255 255 255
1.011898 1.503233 0.093519 -0.367090 0.729326 0.577345 255 255 255 255
1.036990 1.398200 0.242155 -0.064294 0.809836 0.583122 255 255 255 255
1.156914 1.468358 0.157942 -0.064294 0.809836 0.583122 255 255 255 255
1.011898 1.503233 0.093519 -0.064294 0.809836 0.583122 255 255 255 255
1.011898 1.503233 0.093519 -0.352691 0.935740 0.000000 255 255 255 255
1.011898 1.503233 -0.090202 -0.352691 0.935740 0.000000 255 255 255 255
0.886505 1.455971 0.001659 -0.352691 0.935740 0.000000 255 255 255 255
1.011898 1.503233 0.093519 -0.045759 0.998953 0.000000 255 255 255 255
1.170841 1.510513 0.001659 -0.045759 0.998953 0.000000 255 255 255 255
1.011898 1.503233 -0.090202 -0.045759 0.998953 0.000000 255 255 255 255
0.861010 1.046517 0.093519 -0.893915 -0.318797 0.315095 255 255 255 255
0.820412 1.216469 0.150293 -0.893915 -0.318797 0.315095 255 255 255 255
0.788451 1.159180 0.001659 -0.893915 -0.318797 0.315095 255 255 255 255
0.861010 1.046517 0.093519 -0.729325 -0.367089 0.577348 255 255 255 255
0.943735 1.115932 0.242156 -0.729325 -0.367089 0.577348 255 255 255 255
0.820412 1.216469 0.150293 -0.729325 -0.367089 0.577348 255 255 255 255
0.943735 1.115932 0.242156 -0.652540 -0.116256 0.748783 255 255 255 255
0.929192 1.277277 0.254532 -0.652540 -0.116256 0.748783 255 255 255 255
0.820412 1.216469 0.150293 -0.652540 -0.116256 0.748783 255 255 255 255
1.077588 1.228247 0.298930 -0.193411 0.268997 0.943521 255 255 255 255
1.036990 1.398200 0.242155 -0.193411 0.268997 0.943521 255 255 255 255
0.929192 1.277277 0.254532 -0.193411 0.268997 0.943521 255 255 255 255
1.077588 1.228247 0.298930 0.111933 0.338814 0.934171 255 255 255 255
1.211440 1.340563 0.242156 0.111933 0.338814 0.934171 255 255 255 255
1.036990 1.398200 0.242155 0.111933 0.338814 0.934171 255 255 255 255
1.211440 1.340563 0.242156 0.197141 0.596710 0.777864 255 255 255 255
1.156914 1.468358 0.157942 0.197141 0.596710 0.777864 255 255 255 255
1.036990 1.398200 0.242155 0.197141 0.596710 0.777864 255 255 255 255
1.294165 1.409978 0.093519 0.480895 0.834805 0.268032 255 255 255 255
1.170841 1.510513 0.001659 0.480895 0.834805 0.268032 255 255 255 255
1.156914 1.468358 0.157942 0.480895 0.834805 0.268032 255 255 255 255
0.943735 1.115932 0.242156 -0.315598 -0.100822 0.943522 255 255 255 255
1.077588 1.228247 0.298930 -0.315598 -0.100822 0.943522 255 255 255 255
0.929192 1.277277 0.254532 -0.315598 -0.100822 0.943522 255 255 255 255
0.943735 1.115932 0.242156 -0.111933 -0.338814 0.934171 255 255 255 255
1.118186 1.058295 0.242155 -0.111933 -0.338814 0.934171 255 255 255 255
1.077588 1.228247 0.298930 -0.111933 -0.338814 0.934171 255 255 255 255
1.118186 1.058295 0.242155 0.193411 -0.268997 0.943521 255 255 255 255
1.225983 1.179218 0.254532 0.193411 -0.268997 0.943521 255 255 255 255
1.077588 1.228247 0.298930 0.193411 -0.268997 0.943521 255 255 255 255
1.211440 1.340563 0.242156 0.534082 0.612143 0.583126 255 255 255 255
1.294165 1.409978 0.093519 0.534082 0.612143 0.583126 255 255 255 255
1.156914 1.468358 0.157942 0.534082 0.612143 0.583126 255 255 255 255
1.211440 1.340563 0.242156 0.729325 0.367088 0.577348 255 255 255 255
1.334763 1.240026 0.150293 0.729325 0.367088 0.577348 255 255 255 255
1.294165 1.409978 0.093519 0.729325 0.367088 0.577348 255 255 255 255
1.334763 1.240026 0.150293 0.893915 0.318797 0.315095 255 255 255 255
1.366724 1.297315 0.001659 0.893915 0.318797 0.315095 255 255 255 255
1.294165 1.409978 0.093519 0.893915 0.318797 0.315095 255 255 255 255
0.984334 0.945981 0.001659 -0.480895 -0.834805 0.268032 255 255 255 255
0.998261 0.988136 0.157942 -0.480895 -0.834805 0.268032 255 255 255 255
0.861010 1.046517 0.093519 -0.480895 -0.834805 0.268032 255 255 255 255
1.143277 0.953262 0.093519 0.064295 -0.809836 0.583122 255 255 255 255
1.118186 1.058295 0.242155 0.064295 -0.809836 0.583122 255 255 255 255
0.998261 0.988136 0.157942 0.064295 -0.809836 0.583122 255 255 255 255
1.143277 0.953262 0.093519 0.367091 -0.729327 0.577345 255 255 255 255
1.277128 1.065576 0.150293 0.367091 -0.729327 0.577345 255 255 255 255
1.118186 1.058295 0.242155 0.367091 -0.729327 0.577345 255 255 255 255
1.277128 1.065576 0.150293 0.454848 -0.482124 0.748779 255 255 255 255
1.225983 1.179218 0.254532 0.454848 -0.482124 0.748779 255 255 255 255
1.118186 1.058295 0.242155 0.454848 -0.482124 0.748779 255 255 255 255
1.277128 1.065576 0.150293 0.738603 -0.244025 0.628425 255 255 255 255
1.334763 1.240026 0.150293 0.738603 -0.244025 0.628425 255 255 255 255
1.225983 1.179218 0.254532 0.738603 -0.244025 0.628425 255 255 255 255
1.277128 1.065576 0.150293 0.887015 -0.293057 0.356821 255 255 255 255
1.359853 1.134992 0.001659 0.887015 -0.293057 0.356821 255 255 255 255
1.334763 1.240026 0.150293 0.887015 -0.293057 0.356821 255 255 255 255
1.359853 1.134992 0.001659 0.979978 -0.041482 0.194736 255 255 255 255
1.366724 1.297315 0.001659 0.979978 -0.041482 0.194736 255 255 255 255
1.334763 1.240026 0.150293 0.979978 -0.041482 0.194736 255 255 255 255
0.984334 0.945981 0.001659 -0.111071 -0.956986 0.268032 255 255 255 255
1.143277 0.953262 0.093519 -0.111071 -0.956986 0.268032 255 255 255 255
0.998261 0.988136 0.157942 -0.111071 -0.956986 0.268032 255 255 255 255
0.900362 1.525320 0.171525 0.652540 0.116255 0.748784 255 255 255 255
0.973434 1.566168 0.101503 0.652540 0.116255 0.748784 255 255 255 255
0.890593 1.633703 0.163212 0.652540 0.116255 0.748784 255 255 255 255
0.747391 1.396962 0.106641 -0.197141 -0.596709 0.777865 255 255 255 255
0.827949 1.444091 0.163211 -0.197141 -0.596709 0.777865 255 255 255 255
0.710763 1.482808 0.163212 -0.197141 -0.596709 0.777865 255 255 255 255
0.900362 1.525320 0.171525 0.315598 0.100822 0.943522 255 255 255 255
0.890593 1.633703 0.163212 0.315598 0.100822 0.943522 255 255 255 255
0.800678 1.558255 0.201349 0.315598 0.100822 0.943522 255 255 255 255
0.747391 1.396962 0.106641 -0.534083 -0.612143 0.583126 255 255 255 255
0.710763 1.482808 0.163212 -0.534083 -0.612143 0.583126 255 255 255 255
0.655193 1.436179 0.063366 -0.534083 -0.612143 0.583126 255 255 255 255
0.853965 1.719548 0.106641 0.111069 0.956986 0.268031 255 255 255 255
0.863320 1.747866 0.001659 0.111069 0.956986 0.268031 255 255 255 255
0.756552 1.742975 0.063365 0.111069 0.956986 0.268031 255 255 255 255
0.700994 1.591190 0.171525 -0.454849 0.482123 0.748779 255 255 255 255
0.773407 1.672420 0.163211 -0.454849 0.482123 0.748779 255 255 255 255
0.666638 1.667529 0.101503 -0.454849 0.482123 0.748779 255 255 255 255
0.606452 1.511859 0.001659 -0.979978 0.041483 0.194736 255 255 255 255
0.627922 1.550343 0.101503 -0.979978 0.041483 0.194736 255 255 255 255
0.611068 1.620899 0.001659 -0.979978 0.041483 0.194736 255 255 255 255
0.611068 1.620899 0.001659 -0.811812 0.550490 0.194739 255 255 255 255
0.666638 1.667529 0.101503 -0.811812 0.550490 0.194739 255 255 255 255
0.672319 1.711227 0.001659 -0.811812 0.550490 0.194739 255 255 255 255
0.611068 1.620899 0.001659 -0.887015 0.293058 0.356821 255 255 255 255
0.627922 1.550343 0.101503 -0.887015 0.293058 0.356821 255 255 255 255
0.666638 1.667529 0.101503 -0.887015 0.293058 0.356821 255 255 255 255
0.627922 1.550343 0.101503 -0.738602 0.244025 0.628425 255 255 255 255
0.700994 1.591190 0.171525 -0.738602 0.244025 0.628425 255 255 255 255
0.666638 1.667529 0.101503 -0.738602 0.244025 0.628425 255 255 255 255
0.666638 1.667529 0.101503 -0.528056 0.788590 0.315093 255 255 255 255
0.756552 1.742975 0.063365 -0.528056 0.788590 0.315093 255 255 255 255
0.672319 1.711227 0.001659 -0.528056 0.788590 0.315093 255 255 255 255
0.666638 1.667529 0.101503 -0.367092 0.729326 0.577344 255 255 255 255
0.773407 1.672420 0.163211 -0.367092 0.729326 0.577344 255 255 255 255
0.756552 1.742975 0.063365 -0.367092 0.729326 0.577344 255 255 255 255
0.773407 1.672420 0.163211 -0.064296 0.809837 0.583122 255 255 255 255
0.853965 1.719548 0.106641 -0.064296 0.809837 0.583122 255 255 255 255
0.756552 1.742975 0.063365 -0.064296 0.809837 0.583122 255 255 255 255
0.756552 1.742975 0.063365 -0.352688 0.935741 0.000000 255 255 255 255
0.756552 1.742975 -0.060048 -0.352688 0.935741 0.000000 255 255 255 255
0.672319 1.711227 0.001659 -0.352688 0.935741 0.000000 255 255 255 255
0.756552 1.742975 0.063365 -0.045761 0.998952 0.000000 255 255 255 255
0.863320 1.747866 0.001659 -0.045761 0.998952 0.000000 255 255 255 255
0.756552 1.742975 -0.060048 -0.045761 0.998952 0.000000 255 255 255 255
0.655193 1.436179 0.063366 -0.893915 -0.318797 0.315094 255 255 255 255
0.627922 1.550343 0.101503 -0.893915 -0.318797 0.315094 255 255 255 255
0.606452 1.511859 0.001659 -0.893915 -0.318797 0.315094 255 255 255 255
0.655193 1.436179 0.063366 -0.729325 -0.367089 0.577348 255 255 255 255
0.710763 1.482808 0.163212 -0.729325 -0.367089 0.577348 255 255 255 255
0.627922 1.550343 0.101503 -0.729325 -0.367089 0.577348 255 255 255 255
0.710763 1.482808 0.163212 -0.652540 -0.116256 0.748783 255 255 255 255
0.700994 1.591190 0.171525 -0.652540 -0.116256 0.748783 255 255 255 255
0.627922 1.550343 0.101503 -0.652540 -0.116256 0.748783 255 255 255 255
0.800678 1.558255 0.201349 -0.193411 0.268997 0.943521 255 255 255 255
0.773407 1.672420 0.163211 -0.193411 0.268997 0.943521 255 255 255 255
0.700994 1.591190 0.171525 -0.193411 0.268997 0.943521 255 255 255 255
0.800678 1.558255 0.201349 0.111933 0.338813 0.934172 255 255 255 255
0.890593 1.633703 0.163212 0.111933 0.338813 0.934172 255 255 255 255
0.773407 1.672420 0.163211 0.111933 0.338813 0.934172 255 255 255 255
0.890593 1.633703 0.163212 0.197141 0.596709 0.777865 255 255 255 255
0.853965 1.719548 0.106641 0.197141 0.596709 0.777865 255 255 255 255
0.773407 1.672420 0.163211 0.197141 0.596709 0.777865 255 255 255 255
0.946163 1.680332 0.063366 0.480895 0.834805 0.268031 255 255 255 255
0.863320 1.747866 0.001659 0.480895 0.834805 0.268031 255 255 255 255
0.853965 1.719548 0.106641 0.480895 0.834805 0.268031 255 255 255 255
0.710763 1.482808 0.163212 -0.315598 -0.100822 0.943522 255 255 255 255
0.800678 1.558255 0.201349 -0.315598 -0.100822 0.943522 255 255 255 255
0.700994 1.591190 0.171525 -0.315598 -0.100822 0.943522 255 255 255 255
0.710763 1.482808 0.163212 -0.111933 -0.338814 0.934171 255 255 255 255
0.827949 1.444091 0.163211 -0.111933 -0.338814 0.934171 255 255 255 255
0.800678 1.558255 0.201349 -0.111933 -0.338814 0.934171 255 255 255 255
0.827949 1.444091 0.163211 0.193411 -0.268997 0.943521 255 255 255 255
0.900362 1.525320 0.171525 0.193411 -0.268997 0.943521 255 255 255 255
0.800678 1.558255 0.201349 0.193411 -0.268997 0.943521 255 255 255 255
0.890593 1.633703 0.163212 0.534083 0.612143 0.583127 255 255 255 255
0.946163 1.680332 0.063366 0.534083 0.612143 0.583127 255 255 255 255
0.853965 1.719548 0.106641 0.534083 0.612143 0.583127 255 255 255 255
0.890593 1.633703 0.163212 0.729325 0.367089 0.577348 255 255 255 255
0.973434 1.566168 0.101503 0.729325 0.367089 0.577348 255 255 255 255
0.946163 1.680332 0.063366 0.729325 0.367089 0.577348 255 255 255 255
0.973434 1.566168 0.101503 0.893915 0.318797 0.315095 255 255 255 255
0.994904 1.604651 0.001659 0.893915 0.318797 0.315095 255 255 255 255
0.946163 1.680332 0.063366 0.893915 0.318797 0.315095 255 255 255 255
0.738036 1.368645 0.001659 -0.480895 -0.834805 0.268031 255 255 255 255
0.747391 1.396962 0.106641 -0.480895 -0.834805 0.268031 255 255 255 255
0.655193 1.436179 0.063366 -0.480895 -0.834805 0.268031 255 255 255 255
0.844804 1.373535 0.063365 0.064295 -0.809836 0.583123 255 255 255 255
0.827949 1.444091 0.163211 0.064295 -0.809836 0.583123 255 255 255 255
0.747391 1.396962 0.106641 0.064295 -0.809836 0.583123 255 255 255 255
0.844804 1.373535 0.063365 0.367091 -0.729326 0.577346 255 255 255 255
0.934718 1.448982 0.101503 0.367091 -0.729326 0.577346 255 255 255 255
0.827949 1.444091 0.163211 0.367091 -0.729326 0.577346 255 255 255 255
0.934718 1.448982 0.101503 0.454848 -0.482124 0.748779 255 255 255 255
0.900362 1.525320 0.171525 0.454848 -0.482124 0.748779 255 255 255 255
0.827949 1.444091 0.163211 0.454848 -0.482124 0.748779 255 255 255 255
0.934718 1.448982 0.101503 0.738603 -0.244025 0.628425 255 255 255 255
0.973434 1.566168 0.101503 0.738603 -0.244025 0.628425 255 255 255 255
0.900362 1.525320 0.171525 0.738603 -0.244025 0.628425 255 255 255 255
0.934718 1.448982 0.101503 0.887015 -0.293057 0.356821 255 255 255 255
0.990288 1.495612 0.001659 0.887015 -0.293057 0.356821 255 255 255 255
0.973434 1.566168 0.101503 0.887015 -0.293057 0.356821 255 255 255 255
0.990288 1.495612 0.001659 0.979978 -0.041483 0.194736 255 255 255 255
0.994904 1.604651 0.001659 0.979978 -0.041483 0.194736 255 255 255 255
0.973434 1.566168 0.101503 0.979978 -0.041483 0.194736 255 255 255 255
0.738036 1.368645 0.001659 -0.111072 -0.956986 0.268031 255 255 255 255
0.844804 1.373535 0.063365 -0.111072 -0.956986 0.268031 255 255 255 255
0.747391 1.396962 0.106641 -0.111072 -0.956986 0.268031 255 255 255 255
1.451279 0.381717 -0.498341 -0.642788 0.766044 0.000000 254 144 138 255
1.451279 0.381717 0.501659 -0.642788 0.766044 0.000000 255 145 137 255
1.451279 0.381717 0.501659 -0.639501 0.762127 -0.100999 255 145 137 255
1.468916 0.429647 0.751659 -0.639501 0.762127 -0.100999 255 86 69 255
1.632509 0.566918 0.751659 -0.639501 0.762127 -0.100999 255 83 64 255
1.648823 0.547476 0.501659 -0.642787 0.766044 0.000000 255 145 136 255
1.632509 0.566918 0.751659 -0.627488 0.747812 -0.216876 255 83 64 255
1.614658 0.588191 0.876659 -0.627488 0.747812 -0.216876 255 83 64 255
1.729725 0.684743 0.876659 -0.627488 0.747812 -0.216876 255 83 64 255
1.468916 0.429647 0.751659 -0.627489 0.747812 -0.216876 255 86 69 255
1.658401 0.646668 0.939159 -0.621054 0.740143 -0.257839 255 83 64 255
1.499592 0.491639 0.876659 -0.621054 0.740143 -0.257839 255 83 64 255
1.451279 0.381717 0.501659 -0.759758 -0.626748 0.173075 255 145 137 255
1.457699 0.374065 0.502135 -0.759758 -0.626748 0.173075 255 145 137 255
1.475275 0.422069 0.753122 -0.759758 -0.626748 0.173075 255 86 69 255
1.796102 0.704188 0.751659 0.621837 0.653327 0.431836 254 92 81 255
1.729725 0.684743 0.876659 0.621837 0.653327 0.431836 255 83 64 255
1.735985 0.677283 0.878931 0.621837 0.653327 0.431836 255 83 64 255
1.468916 0.429647 0.751659 -0.728708 -0.527030 0.437292 255 86 69 255
1.475275 0.422069 0.753122 -0.728708 -0.527030 0.437292 255 86 69 255
1.505852 0.484179 0.878931 -0.728708 -0.527030 0.437292 255 83 64 255
1.729725 0.684743 0.876659 0.356611 0.559784 0.747977 255 83 64 255
1.658401 0.646668 0.939159 0.356611 0.559784 0.747977 255 83 64 255
1.664612 0.639267 0.941737 0.356611 0.559784 0.747977 255 83 64 255
1.499592 0.491639 0.876659 -0.599060 -0.273420 0.752575 255 83 64 255
1.505852 0.484179 0.878931 -0.599060 -0.273420 0.752575 255 83 64 255
1.555684 0.547866 0.941737 -0.599060 -0.273420 0.752575 255 83 64 255
1.664612 0.639267 0.941737 -0.165725 0.197504 0.966192 255 83 64 255
1.549474 0.555267 0.939159 -0.165725 0.197503 0.966192 255 83 64 255
1.555684 0.547866 0.941737 -0.165725 0.197503 0.966192 255 83 64 255
1.610148 0.593566 0.941737 -0.165725 0.197503 0.966192 255 83 64 255
3 0 1 2
3 3 4 5
3 6 7 8
3 9 10 11
3 12 13 14
3 15 16 17
3 18 19 20
3 21 22 23
3 24 25 26
3 27 28 29
3 30 31 32
3 33 34 35
3 36 37 38
3 39 40 41
3 42 43 44
3 45 46 47
3 48 49 50
3 51 52 53
3 54 55 56
3 57 58 59
3 60 61 62
3 63 64 65
3 66 67 68
3 69 70 71
3 72 73 74
3 75 76 77
3 78 79 80
3 81 82 83
3 84 85 86
3 87 88 89
3 90 91 92
3 93 94 95
3 96 97 98
3 99 100 101
3 102 103 104
3 105 106 107
3 108 109 110
3 111 112 113
3 114 115 116
3 117 116 118
3 119 120 121
3 119 122 123
3 124 125 126
3 127 128 129
3 130 131 132
3 133 134 135
3 136 137 138
3 139 140 141
3 142 143 144
3 145 146 147
3 148 149 150
3 151 152 153
3 154 155 156
3 157 158 159
3 160 161 162
3 163 164 165
3 166 167 168
3 169 170 171
3 172 173 174
3 175 176 177
3 178 179 180
3 181 182 183
3 184 185 186
3 187 188 189
3 190 191 192
3 193 194 195
3 196 197 198
3 199 200 201
3 202 203 204
3 205 206 207
3 208 209 210
3 211 212 213
3 214 215 216
3 217 218 219
3 220 221 222
3 223 224 225
3 226 227 228
3 229 230 231
3 232 233 234
3 235 236 237
3 238 239 240
3 241 242 243
3 244 245 246
3 247 248 249
3 250 251 252
3 253 254 255
3 256 257 258
3 259 260 261
3 262 263 264
3 265 266 267
3 268 269 270
3 271 272 273
3 274 275 276
3 277 278 279
3 280 281 282
3 283 284 285
3 286 287 288
3 289 290 291
3 292 293 294
3 295 296 297
3 298 299 300
3 301 302 303
3 304 305 306
3 307 308 309
3 310 311 312
3 313 314 315
3 316 317 318
3 319 320 321
3 322 323 324
3 325 326 327
3 328 329 330
3 331 332 333
3 334 335 336
3 337 338 339
3 340 341 342
3 343 344 345
3 346 347 348
3 349 350 351
3 352 353 354
3 355 356 357
3 358 359 360
3 361 362 363
3 364 365 366
3 367 105 107
3 105 368 106
3 111 369 370
3 111 371 112
3 114 372 115
3 117 114 116
3 373 374 375
3 119 376 122
3 127 129 377
3 127 378 128
3 379 380 381
3 382 383 384
3 385 386 387
3 388 389 390
3 391 392 393
3 150 149 394
3 395 396 397
