ply
format ascii 1.0
comment Created by Blender 2.91.2 - www.blender.org
element vertex 30
property float x
property float y
property float z
property float nx
property float ny
property float nz
property uchar red
property uchar green
property uchar blue
property uchar alpha
element face 12
property list uchar uint vertex_indices
end_header
1.126608 0.022648 0.997070 -0.881863 0.471471 -0.005731 255 175 0 255
1.491671 0.681113 -1.007659 -0.881863 0.471471 -0.005731 255 130 0 255
1.130800 0.006179 -1.002858 -0.881863 0.471471 -0.005731 255 130 0 255
1.487479 0.697582 0.992268 -0.290169 0.956938 -0.008488 255 174 0 255
2.224107 0.903204 -1.007953 -0.290169 0.956938 -0.008488 255 130 0 255
1.491671 0.681113 -1.007659 -0.290169 0.956938 -0.008488 255 130 0 255
1.126608 0.022648 0.997070 -0.845183 0.453908 0.282193 255 175 0 255
1.670638 0.479454 1.891696 -0.845183 0.453908 0.282193 255 222 58 255
1.487479 0.697582 0.992268 -0.845183 0.453908 0.282193 255 174 0 255
2.219915 0.919673 0.991975 -0.278505 0.918850 0.279552 255 174 0 255
1.670638 0.479454 1.891696 -0.278505 0.918850 0.279552 255 222 58 255
2.403074 0.701546 1.891402 -0.278505 0.918850 0.279552 255 255 255 255
2.224107 0.903204 -1.007953 -0.285926 0.942727 -0.171791 255 130 0 255
1.678488 0.444269 -2.618310 -0.285926 0.942727 -0.171791 255 89 1 255
1.491671 0.681113 -1.007659 -0.285926 0.942727 -0.171791 255 130 0 255
1.130800 0.006179 -1.002858 -0.846165 0.511945 -0.148043 255 130 0 255
1.678488 0.444269 -2.618310 -0.846165 0.511945 -0.148043 255 89 1 255
1.289841 -0.196813 -2.613846 -0.846165 0.511945 -0.148043 255 255 255 255
1.487479 0.697582 0.992268 -0.881863 0.471471 -0.005731 255 174 0 255
2.219915 0.919673 0.991975 -0.290169 0.956938 -0.008488 255 174 0 255
1.309766 -0.195479 1.896497 -0.845183 0.453908 0.282193 255 255 255 255
2.219915 0.919673 0.991975 -0.278504 0.918850 0.279552 255 174 0 255
1.487479 0.697582 0.992268 -0.278504 0.918850 0.279552 255 174 0 255
1.670638 0.479454 1.891696 -0.278504 0.918850 0.279552 255 222 58 255
2.224107 0.903204 -1.007953 -0.337628 0.929184 -0.150413 255 130 0 255
2.383148 0.700211 -2.618941 -0.337628 0.929184 -0.150413 255 255 255 255
1.678488 0.444269 -2.618310 -0.337628 0.929184 -0.150413 255 89 1 255
1.130800 0.006179 -1.002858 -0.869665 0.463787 -0.169070 255 130 0 255
1.491671 0.681113 -1.007659 -0.869665 0.463787 -0.169070 255 130 0 255
1.678488 0.444269 -2.618310 -0.869665 0.463787 -0.169070 255 89 1 255
3 0 1 2
3 3 4 5
3 6 7 8
3 9 10 11
3 12 13 14
3 15 16 17
3 0 18 1
3 3 19 4
3 6 20 7
3 21 22 23
3 24 25 26
3 27 28 29
