ply
format ascii 1.0
comment Created by Blender 2.91.2 - www.blender.org
element vertex 27
property float x
property float y
property float z
property float nx
property float ny
property float nz
property uchar red
property uchar green
property uchar blue
property uchar alpha
element face 9
property list uchar uint vertex_indices
end_header
1.607617 0.556324 0.004084 0.875862 -0.023323 0.481998 255 225 1 255
1.619739 0.945779 0.000903 0.875862 -0.023323 0.481998 180 7 255 255
1.482255 0.835405 0.245391 0.875862 -0.023323 0.481998 61 251 248 255
1.607617 0.556324 0.004084 0.169481 -0.599933 0.781893 255 225 1 255
1.482255 0.835405 0.245391 0.169481 -0.599933 0.781893 61 251 248 255
1.260828 0.652803 0.153280 0.169481 -0.599933 0.781893 180 10 255 255
1.482255 0.835405 0.245391 0.685990 0.435937 0.582561 61 251 248 255
1.619739 0.945779 0.000903 0.685990 0.435937 0.582561 180 7 255 255
1.280437 1.282955 0.148132 0.685990 0.435937 0.582561 180 0 255 255
1.260828 0.652803 0.153280 -0.174539 -0.266505 0.947899 180 10 255 255
1.482255 0.835405 0.245391 -0.174539 -0.266505 0.947899 61 251 248 255
1.058620 1.101888 0.242309 -0.174539 -0.266505 0.947899 20 255 255 255
1.482255 0.835405 0.245391 0.170573 0.282085 0.944104 61 251 248 255
1.280437 1.282955 0.148132 0.170573 0.282085 0.944104 180 0 255 255
1.058620 1.101888 0.242309 0.170573 0.282085 0.944104 20 255 255 255
1.260828 0.652803 0.153280 -0.688440 -0.426308 0.586780 180 10 255 255
1.058620 1.101888 0.242309 -0.688440 -0.426308 0.586780 20 255 255 255
0.922157 0.987497 -0.000903 -0.688440 -0.426308 0.586780 180 2 255 255
1.280437 1.282955 0.148132 0.265071 0.964201 -0.007384 180 0 255 255
1.281069 1.280473 -0.153280 0.265071 0.964201 -0.007384 0 255 255 255
0.934279 1.376952 -0.004084 0.265071 0.964201 -0.007384 255 225 0 255
1.058620 1.101888 0.242309 -0.172736 0.612722 0.771190 20 255 255 255
1.280437 1.282955 0.148132 -0.172736 0.612722 0.771190 180 0 255 255
0.934279 1.376952 -0.004084 -0.172736 0.612722 0.771190 255 225 0 255
0.922157 0.987497 -0.000903 -0.877873 0.031228 0.477874 180 2 255 255
1.058620 1.101888 0.242309 -0.877873 0.031228 0.477874 20 255 255 255
0.934279 1.376952 -0.004084 -0.877873 0.031228 0.477874 255 225 0 255
3 0 1 2
3 3 4 5
3 6 7 8
3 9 10 11
3 12 13 14
3 15 16 17
3 18 19 20
3 21 22 23
3 24 25 26
