ply
format ascii 1.0
comment Created by Blender 2.91.2 - www.blender.org
element vertex 99
property float x
property float y
property float z
property float nx
property float ny
property float nz
property uchar red
property uchar green
property uchar blue
property uchar alpha
element face 104
property list uchar uint vertex_indices
end_header
1.751349 0.644276 0.023432 0.044282 0.013520 0.998901 255 255 255 255
1.749208 0.694675 0.022767 0.000000 -0.264016 0.964507 255 255 255 255
1.714230 0.700342 0.024318 -0.595599 -0.141697 0.790643 255 240 240 255
1.696383 0.638958 0.025869 -0.609149 0.180792 0.772149 255 255 255 255
1.703421 0.710998 -0.007738 -0.937529 0.102939 0.332224 255 255 255 255
1.855993 0.767631 -0.020734 0.900998 0.255684 0.350383 255 24 0 255
1.836820 0.791229 -0.006424 0.792230 0.488784 0.365307 255 24 0 255
1.802923 0.768791 0.097112 0.500778 0.527726 0.686056 255 24 0 255
1.666487 0.742180 0.118367 -0.727714 0.017914 0.685598 255 25 6 255
1.675217 0.761754 0.115738 -0.385205 0.437696 0.812403 255 24 0 255
1.632542 0.803829 -0.010825 -0.740745 0.521653 0.423200 255 24 0 255
1.815627 0.718020 0.111754 0.624866 0.089541 0.775567 255 65 61 255
1.861714 0.748528 -0.029014 0.932737 0.134342 0.334483 255 27 13 255
1.813317 0.739382 0.109614 0.572069 0.282632 0.769951 255 24 0 255
1.693230 0.786561 0.101976 -0.247810 0.649007 0.719260 255 24 0 255
1.707211 0.802270 0.089396 -0.213080 0.691702 0.689993 255 140 138 255
1.680524 0.828583 0.010249 -0.512925 0.747795 0.421552 255 24 0 255
1.820261 0.805946 0.004052 0.756767 0.542100 0.365246 255 24 0 255
1.793573 0.788280 0.085566 0.478866 0.579608 0.659291 255 24 0 255
1.725384 0.825591 0.074598 -0.242897 0.655263 0.715232 255 24 0 255
1.739473 0.843073 0.062806 -0.278390 0.608234 0.743309 255 24 0 255
1.728912 0.853484 0.031488 -0.605640 0.671224 0.427351 255 24 0 255
1.782470 0.816343 0.072067 0.497757 0.535264 0.682394 255 24 0 255
1.707744 0.842984 0.022282 -0.556230 0.714103 0.424970 255 24 0 255
1.800110 0.828020 0.018186 0.787408 0.496445 0.365368 255 24 0 255
1.784206 0.844527 0.029036 0.778649 0.510025 0.365459 255 24 5 255
1.773646 0.837537 0.061291 0.405774 0.499557 0.765313 255 115 113 255
1.769254 0.855559 0.056250 0.352336 0.296670 0.887570 255 24 0 255
1.748867 0.858861 0.057154 -0.365093 0.473647 0.801447 255 24 0 255
1.742567 0.865073 0.038470 -0.716819 0.552416 0.425367 255 24 2 255
1.763301 0.885318 0.049646 0.118839 0.498642 0.858577 255 28 15 255
1.775554 0.859729 0.037007 0.900296 0.257881 0.350627 255 25 2 255
1.767055 0.734471 0.048121 -0.046724 -0.521714 0.851802 255 255 255 255
1.712090 0.743375 0.050559 -0.351115 -0.500107 0.791528 255 255 255 255
1.644365 0.769860 -0.549799 -0.661435 0.718526 0.214999 255 113 185 255
1.296693 0.216547 0.229774 -0.661435 0.718526 0.214999 180 40 86 255
1.744665 0.585558 0.374707 -0.661435 0.718526 0.214999 180 40 86 255
1.950789 0.740417 -1.058737 -0.100935 0.987880 -0.117922 180 43 87 255
1.644365 0.769860 -0.549799 -0.100935 0.987880 -0.117922 255 113 185 255
2.070957 0.846870 -0.269793 -0.100935 0.987880 -0.117922 180 40 86 255
1.515290 0.381012 -1.266802 -0.797688 0.578564 -0.170169 186 79 108 255
1.187505 0.118469 -0.622898 -0.797688 0.578564 -0.170169 180 41 86 255
1.644365 0.769860 -0.549799 -0.797688 0.578564 -0.170169 255 113 185 255
1.644365 0.769860 -0.549799 -0.820145 0.570800 0.039367 255 113 185 255
1.187505 0.118469 -0.622898 -0.820145 0.570800 0.039367 180 41 86 255
1.296693 0.216547 0.229774 -0.820145 0.570800 0.039367 180 40 86 255
2.070957 0.846870 -0.269793 -0.310208 0.925309 0.218117 180 40 86 255
1.644365 0.769860 -0.549799 -0.310208 0.925309 0.218117 255 113 185 255
1.744665 0.585558 0.374707 -0.310208 0.925309 0.218117 180 40 86 255
1.435355 0.609181 -0.451172 0.727592 0.681783 -0.075930 255 255 255 255
1.419457 0.590317 -0.375247 0.378765 0.449446 0.809015 255 255 255 255
1.515757 0.538987 -0.343852 0.094638 0.642598 0.760308 255 255 255 255
1.368010 0.529272 -0.375247 -0.378765 -0.449446 0.809015 255 240 240 255
1.434912 0.443060 -0.343852 -0.617298 -0.202155 0.760308 255 255 255 255
1.352112 0.510409 -0.451172 -0.612873 -0.727226 0.309000 255 255 255 255
1.427679 0.864669 -0.513042 0.166540 0.948210 0.270455 255 24 0 255
1.354295 0.857918 -0.495999 -0.085696 0.970946 0.223273 255 24 0 255
1.304438 0.798760 -0.257891 -0.339244 0.782281 0.522385 255 24 0 255
1.187020 0.511428 -0.195931 -0.677175 -0.119175 0.726066 255 25 6 255
1.161785 0.549172 -0.213272 -0.744102 -0.007599 0.668020 255 24 0 255
1.099016 0.474694 -0.513042 -0.906278 -0.324747 0.270455 255 24 0 255
1.406383 0.771714 -0.195931 0.195563 0.348460 0.916654 255 65 61 255
1.474170 0.852147 -0.519666 0.380871 0.875515 0.297281 255 27 13 255
1.364910 0.790190 -0.213272 -0.118534 0.734611 0.668020 255 24 0 255
1.143095 0.607319 -0.257891 -0.828455 0.201819 0.522385 255 24 0 255
1.136187 0.647960 -0.294537 -0.839595 0.248756 0.482864 255 140 138 255
1.096934 0.601385 -0.482001 -0.977691 -0.017853 0.209143 255 24 0 255
1.302466 0.845259 -0.482001 -0.147984 0.966613 0.209143 255 24 0 255
1.263213 0.798683 -0.294537 -0.387402 0.785302 0.482864 255 24 0 255
1.120989 0.704462 -0.340522 -0.830226 0.208594 0.516861 255 24 0 255
1.110488 0.747507 -0.376511 -0.815607 0.158757 0.556352 255 24 0 255
1.094956 0.729077 -0.450690 -0.962645 -0.134465 0.234962 255 24 0 255
1.204954 0.804090 -0.340522 -0.346233 0.782891 0.516861 255 24 0 255
1.095043 0.673675 -0.464436 -0.972564 -0.071230 0.221320 255 24 0 255
1.230900 0.834877 -0.464436 -0.094546 0.970580 0.221320 255 24 0 255
1.176284 0.825577 -0.450690 -0.030519 0.971496 0.234962 255 24 5 255
1.160752 0.807147 -0.376511 -0.294626 0.776940 0.556352 255 115 113 255
1.124620 0.817023 -0.398165 -0.154424 0.745811 0.647969 255 24 0 255
1.094634 0.781444 -0.398165 -0.761193 0.025849 0.647969 255 24 0 255
1.085368 0.770449 -0.442418 -0.920133 -0.288766 0.264412 255 24 2 255
1.133886 0.828018 -0.442418 0.128727 0.955748 0.264412 255 25 2 255
1.065563 0.836370 -0.430186 -0.548692 0.462416 0.696463 255 28 15 255
1.271710 0.580602 -0.343852 -0.094638 -0.642598 0.760308 255 255 255 255
1.246727 0.550959 -0.463164 -0.372143 -0.879543 0.296426 255 255 255 255
1.352555 0.676530 -0.343852 0.617298 0.202155 0.760308 255 255 255 255
1.377538 0.706173 -0.463164 0.859432 0.511124 -0.009522 255 255 255 255
1.679398 0.643060 -0.024504 -0.913236 0.242042 0.327647 255 254 253 255
1.685866 0.760783 0.099234 -0.136876 -0.637349 -0.758293 255 253 253 255
1.620400 0.787620 -0.018313 -0.810358 0.416761 0.411786 255 24 0 255
1.659333 0.819982 0.001447 -0.563219 0.708365 0.425398 255 24 0 255
1.540740 0.568630 -0.463164 0.372143 0.879543 0.296426 255 204 204 255
1.409929 0.413416 -0.463164 -0.803766 -0.515763 0.296426 255 254 253 255
1.354353 0.765591 -0.248525 0.286752 -0.942045 -0.173986 255 255 255 255
1.119233 0.430996 -0.519666 -0.852016 -0.437696 0.287149 255 24 0 255
1.093238 0.548160 -0.495999 -0.971435 -0.079989 0.223273 255 24 0 255
1.393734 0.559795 -0.498097 0.579180 0.249275 -0.776116 255 255 255 255
1.644365 0.769860 -0.549799 -0.494481 0.798262 -0.343900 255 113 185 255
1.950789 0.740417 -1.058737 -0.494481 0.798262 -0.343900 180 43 87 255
1.515290 0.381012 -1.266802 -0.494481 0.798262 -0.343900 186 79 108 255
3 0 1 2
3 3 2 4
3 5 6 7
3 8 9 10
3 11 12 5
3 8 11 13
3 14 15 16
3 9 13 7
3 10 9 14
3 7 6 17
3 7 18 15
3 19 20 21
3 15 18 22
3 15 19 23
3 18 17 24
3 22 24 25
3 19 22 26
3 20 26 27
3 20 28 29
3 28 30 29
3 31 30 27
3 27 30 28
3 1 32 33
3 34 35 36
3 37 38 39
3 40 41 42
3 43 44 45
3 46 47 48
3 49 50 51
3 50 52 53
3 53 52 54
3 55 56 57
3 58 59 60
3 61 62 55
3 58 61 63
3 64 65 66
3 59 63 57
3 60 59 64
3 57 56 67
3 57 68 65
3 69 70 71
3 65 68 72
3 65 69 73
3 68 67 74
3 72 74 75
3 69 72 76
3 76 77 78
3 70 78 79
3 76 75 80
3 78 81 79
3 80 81 77
3 77 81 78
3 82 83 54
3 50 84 82
3 49 85 84
3 0 2 3
3 3 4 86
3 87 11 8
3 5 7 13
3 8 10 88
3 11 5 13
3 8 13 9
3 14 16 89
3 9 7 14
3 10 14 89
3 7 17 18
3 7 15 14
3 19 21 23
3 15 22 19
3 15 23 16
3 18 24 22
3 22 25 26
3 19 26 20
3 20 27 28
3 20 29 21
3 33 4 2
3 1 33 2
3 49 51 90
3 50 53 51
3 53 54 91
3 92 62 61
3 55 57 63
3 58 60 93
3 61 55 63
3 58 63 59
3 64 66 94
3 59 57 64
3 60 64 94
3 57 67 68
3 57 65 64
3 69 71 73
3 65 72 69
3 65 73 66
3 68 74 72
3 72 75 76
3 69 76 70
3 76 78 70
3 70 79 71
3 76 80 77
3 82 54 52
3 50 82 52
3 49 84 50
3 95 85 49
3 96 97 98
