ply
format ascii 1.0
comment Created by Blender 2.91.2 - www.blender.org
element vertex 25
property float x
property float y
property float z
property float nx
property float ny
property float nz
property uchar red
property uchar green
property uchar blue
property uchar alpha
element face 23
property list uchar uint vertex_indices
end_header
-0.756139 3.382810 4.020813 0.000000 0.000000 1.000000 255 0 5 255
0.346942 3.342227 4.020813 0.000000 0.000000 1.000000 255 0 5 255
-0.331942 3.511403 4.020813 0.000000 0.000000 1.000000 255 0 5 255
-0.754967 3.009815 4.020813 0.000000 0.000000 1.000000 255 0 5 255
-0.335107 3.130275 4.020813 0.000000 0.000000 1.000000 255 0 5 255
0.577117 2.949573 4.020813 0.000000 0.000000 1.000000 255 0 16 255
-0.002050 3.060644 4.020813 0.000000 0.000000 1.000000 255 0 5 255
0.163105 2.886569 4.020813 0.000000 0.000000 1.000000 255 0 5 255
0.542657 2.437403 4.020813 0.000000 0.000000 1.000000 255 0 5 255
0.160391 2.502577 4.020813 0.000000 0.000000 1.000000 255 0 5 255
-0.328608 2.287708 4.020813 0.000000 0.000000 1.000000 255 1 5 255
-0.315355 1.971132 4.020813 -0.000000 0.000000 1.000000 255 0 5 255
0.244963 2.158880 4.020813 0.000000 0.000000 1.000000 255 0 5 255
0.482077 2.005785 4.020813 0.000000 0.000000 1.000000 255 0 5 255
0.160925 1.763612 4.020813 -0.000000 0.000000 1.000000 255 0 5 255
0.655226 1.465836 4.020813 0.000000 0.000000 1.000000 255 0 5 255
0.239155 1.452333 4.020813 0.000000 0.000000 1.000000 255 0 5 255
0.155165 1.197906 4.020813 -0.000000 0.000000 1.000000 255 0 5 255
0.432074 0.932133 4.020813 0.000000 0.000000 1.000000 255 0 5 255
-0.822850 0.815979 4.020813 0.000000 0.000000 1.000000 255 0 5 255
-0.379448 1.050475 4.020813 0.000000 0.000000 1.000000 255 0 5 255
-0.820804 1.240021 4.020813 0.000000 0.000000 1.000000 255 0 5 255
-0.049334 1.060569 4.020813 0.000000 0.000000 1.000000 255 0 5 255
0.065246 0.701478 4.020813 0.000000 0.000000 1.000000 255 0 5 255
-0.391772 0.671583 4.020813 0.000000 0.000000 1.000000 255 0 5 255
3 0 1 2
3 3 1 0
3 3 4 1
3 4 5 1
3 6 5 4
3 7 5 6
3 7 8 5
3 9 8 7
3 10 8 9
3 11 8 10
3 11 12 8
3 11 13 12
3 14 13 11
3 14 15 13
3 16 15 14
3 17 15 16
3 17 18 15
3 19 20 21
3 22 18 17
3 20 18 22
3 19 18 20
3 19 23 18
3 24 23 19
