ply
format ascii 1.0
comment Created by Blender 2.91.2 - www.blender.org
element vertex 80
property float x
property float y
property float z
property float nx
property float ny
property float nz
property uchar red
property uchar green
property uchar blue
property uchar alpha
element face 40
property list uchar uint vertex_indices
end_header
1.000000 -0.000676 -81.156403 0.000000 1.000000 0.000000 103 255 169 255
-1.000000 -0.000676 3.432461 0.000000 1.000000 0.000000 255 83 64 255
1.000000 -0.000676 3.432474 0.000000 1.000000 0.000000 255 83 64 255
-1.000000 -0.000676 -81.156403 0.628845 0.777531 0.000000 103 255 169 255
-2.236442 0.999324 3.432474 0.628845 0.777531 0.000000 255 83 64 255
-1.000000 -0.000676 3.432461 0.628845 0.777531 0.000000 255 83 64 255
1.000000 -0.000676 3.432474 -0.628845 0.777530 0.000000 255 83 64 255
2.236442 0.999324 -81.156403 -0.628845 0.777530 0.000000 108 254 168 255
1.000000 -0.000676 -81.156403 -0.628845 0.777530 0.000000 103 255 169 255
-2.236442 0.999324 3.432474 1.000000 0.000000 0.000000 255 83 64 255
-2.236442 1.996885 -81.156403 1.000000 0.000000 0.000000 103 255 169 255
-2.236442 1.996885 3.432475 1.000000 0.000000 0.000000 255 83 64 255
2.236442 0.999324 3.432474 -1.000000 0.000000 0.000000 255 83 64 255
2.236442 1.996885 -81.156403 -1.000000 0.000000 0.000000 103 255 169 255
2.236442 0.999324 -81.156403 -1.000000 0.000000 0.000000 108 254 168 255
1.000000 3.994447 -81.156403 -0.628845 -0.777530 0.000000 103 255 169 255
2.236442 2.994446 3.432477 -0.628845 -0.777530 0.000000 255 84 65 255
1.000000 3.994447 3.432464 -0.628845 -0.777530 0.000000 255 83 64 255
2.236442 2.994446 -81.156403 -1.000000 0.000000 0.000000 103 255 169 255
2.236442 1.996885 3.432475 -1.000000 0.000000 0.000000 255 83 64 255
2.236442 2.994446 3.432477 -1.000000 0.000000 0.000000 255 84 65 255
-2.236442 2.994447 3.432477 1.000000 -0.000000 0.000000 255 83 64 255
-2.236442 2.994447 -81.156403 1.000000 -0.000000 0.000000 103 255 169 255
-1.000000 3.994447 3.432477 0.628845 -0.777531 0.000000 255 111 76 255
-2.236442 2.994447 -81.156403 0.628845 -0.777531 0.000000 103 255 169 255
-1.000000 3.994447 -81.156403 0.628845 -0.777531 0.000000 103 255 169 255
1.000000 3.994447 -81.156403 0.000000 -1.000000 0.000000 103 255 169 255
-1.000000 3.994447 3.432477 0.000000 -1.000000 0.000000 255 111 76 255
-1.000000 3.994447 -81.156403 0.000000 -1.000000 0.000000 103 255 169 255
-1.000000 -0.000676 -81.156403 0.000000 1.000000 -0.000000 103 255 169 255
-2.236442 0.999324 -81.156403 0.628845 0.777531 0.000000 103 255 169 255
2.236442 0.999324 3.432474 -0.628845 0.777530 0.000000 255 83 64 255
-2.236442 0.999324 -81.156403 1.000000 0.000000 -0.000000 103 255 169 255
2.236442 2.994446 -81.156403 -0.628845 -0.777530 -0.000000 103 255 169 255
-2.236442 2.994447 3.432477 0.628845 -0.777531 0.000000 255 83 64 255
1.000000 3.994447 3.432464 0.000000 -1.000000 0.000000 255 83 64 255
1.000000 3.994447 -81.156403 -0.489757 -0.605556 -0.627248 103 255 169 255
8.484565 9.043983 -91.875282 -0.489757 -0.605556 -0.627248 211 102 255 255
2.236442 2.994446 -81.156403 -0.489757 -0.605556 -0.627248 103 255 169 255
-1.000000 3.994447 -81.156403 0.000000 -0.870874 -0.491506 103 255 169 255
7.248123 10.043985 -91.875282 0.000000 -0.870874 -0.491506 211 102 255 255
1.000000 3.994447 -81.156403 0.000000 -0.870874 -0.491506 103 255 169 255
-1.000000 -0.000676 -81.156403 0.489757 0.605556 0.627248 103 255 169 255
4.011681 7.048862 -91.875290 0.489757 0.605556 0.627248 211 102 255 255
-2.236442 0.999324 -81.156403 0.489757 0.605556 0.627248 103 255 169 255
-2.236442 2.994447 -81.156403 0.627210 -0.775508 -0.072077 103 255 169 255
5.248123 10.043985 -91.875282 0.627210 -0.775508 -0.072077 211 102 255 255
-1.000000 3.994447 -81.156403 0.627210 -0.775508 -0.072077 103 255 169 255
2.236442 2.994446 -81.156403 -0.863939 0.000001 -0.503597 103 255 169 255
8.484564 8.046422 -91.875282 -0.863939 0.000001 -0.503597 211 102 255 255
2.236442 1.996885 -81.156403 -0.863939 0.000001 -0.503597 103 255 169 255
-2.236442 0.999324 -81.156403 0.863939 0.000000 0.503597 103 255 169 255
4.011681 8.046423 -91.875282 0.863939 0.000000 0.503597 211 102 255 255
-2.236442 1.996885 -81.156403 0.863939 0.000000 0.503597 103 255 169 255
2.236442 0.999324 -81.156403 -0.627210 0.775508 0.072077 108 254 168 255
7.248123 6.048862 -91.875290 -0.627210 0.775508 0.072077 211 102 255 255
1.000000 -0.000676 -81.156403 -0.627210 0.775508 0.072077 103 255 169 255
4.011681 9.043984 -91.875282 0.863939 0.000000 0.503597 212 103 255 255
-2.236442 2.994447 -81.156403 0.863939 0.000000 0.503597 103 255 169 255
2.236442 0.999324 -81.156403 -0.863940 0.000004 -0.503595 108 254 168 255
8.484564 8.046422 -91.875282 -0.863940 0.000004 -0.503595 211 102 255 255
8.484564 7.048862 -91.875290 -0.863940 0.000004 -0.503595 211 102 255 255
1.000000 -0.000676 -81.156403 0.000000 0.870875 0.491505 103 255 169 255
5.248123 6.048862 -91.875290 0.000000 0.870875 0.491505 211 102 255 255
-1.000000 -0.000676 -81.156403 0.000000 0.870875 0.491505 103 255 169 255
7.248123 10.043985 -91.875282 -0.489757 -0.605556 -0.627248 211 102 255 255
5.248123 10.043985 -91.875282 -0.000000 -0.870874 -0.491506 211 102 255 255
5.248123 6.048862 -91.875290 0.489757 0.605556 0.627248 211 102 255 255
-2.236442 2.994447 -81.156403 0.627210 -0.775508 -0.072076 103 255 169 255
4.011681 9.043984 -91.875282 0.627210 -0.775508 -0.072076 212 103 255 255
5.248123 10.043985 -91.875282 0.627210 -0.775508 -0.072076 211 102 255 255
8.484565 9.043983 -91.875282 -0.863939 0.000001 -0.503597 211 102 255 255
-2.236442 0.999324 -81.156403 0.863940 -0.000004 0.503595 103 255 169 255
4.011681 7.048862 -91.875290 0.863940 -0.000004 0.503595 211 102 255 255
4.011681 8.046423 -91.875282 0.863940 -0.000004 0.503595 211 102 255 255
8.484564 7.048862 -91.875290 -0.627210 0.775508 0.072077 211 102 255 255
2.236442 0.999324 -81.156403 -0.863939 -0.000000 -0.503597 108 254 168 255
2.236442 1.996885 -81.156403 -0.863939 -0.000000 -0.503597 103 255 169 255
8.484564 8.046422 -91.875282 -0.863939 -0.000000 -0.503597 211 102 255 255
7.248123 6.048862 -91.875290 -0.000000 0.870875 0.491505 211 102 255 255
3 0 1 2
3 3 4 5
3 6 7 8
3 9 10 11
3 12 13 14
3 15 16 17
3 18 19 20
3 21 10 22
3 23 24 25
3 26 27 28
3 0 29 1
3 3 30 4
3 6 31 7
3 9 32 10
3 12 19 13
3 15 33 16
3 18 13 19
3 21 11 10
3 23 34 24
3 26 35 27
3 36 37 38
3 39 40 41
3 42 43 44
3 45 46 47
3 48 49 50
3 51 52 53
3 54 55 56
3 53 57 58
3 59 60 61
3 62 63 64
3 36 65 37
3 39 66 40
3 42 67 43
3 68 69 70
3 48 71 49
3 72 73 74
3 54 75 55
3 53 52 57
3 76 77 78
3 62 79 63
