ply
format ascii 1.0
comment Created by Blender 2.91.2 - www.blender.org
element vertex 13
property float x
property float y
property float z
property float nx
property float ny
property float nz
property uchar red
property uchar green
property uchar blue
property uchar alpha
element face 11
property list uchar uint vertex_indices
end_header
-0.435913 2.733526 4.106663 0.000000 0.000000 1.000000 255 132 0 255
0.256765 2.712886 4.106663 0.000000 0.000000 1.000000 255 132 0 255
-0.149687 2.867742 4.106663 0.000000 0.000000 1.000000 255 132 0 255
-0.438153 2.475372 4.106663 0.000000 0.000000 1.000000 255 132 0 255
-0.250475 2.641107 4.106663 0.000000 0.000000 1.000000 255 132 0 255
0.026336 2.632479 4.106663 0.000000 0.000000 1.000000 255 132 0 255
0.127071 2.375748 4.106663 -0.000000 0.000000 1.000000 255 132 0 255
0.309268 2.238181 4.106663 0.000000 0.000000 1.000000 255 132 0 255
0.016643 2.065378 4.106663 0.000000 0.000000 1.000000 255 132 0 255
-0.100649 1.626109 4.106663 0.000000 -0.000000 1.000000 255 132 0 255
-0.471953 1.437211 4.106663 0.000000 0.000000 1.000000 255 132 0 255
0.425444 1.622839 4.106663 0.000000 0.000000 1.000000 255 132 0 255
0.425444 1.430524 4.106663 0.000000 0.000000 1.000000 255 132 0 255
3 0 1 2
3 3 4 0
3 4 1 0
3 4 5 1
3 6 1 5
3 6 7 1
3 8 7 6
3 8 9 7
3 10 9 8
3 10 11 9
3 10 12 11
